<svg xmlns="http://www.w3.org/2000/svg" version="1.1" xmlns:xlink="http://www.w3.org/1999/xlink" xmlns:svgjs="http://svgjs.com/svgjs" width="1440" height="560" preserveAspectRatio="none" viewBox="0 0 1440 560"><g mask="url(&quot;#SvgjsMask1036&quot;)" fill="none"><path d="M852.87,474.954C905.647,472.846,946.305,431.58,969.535,384.144C989.961,342.435,983.566,294.952,960.86,254.439C937.545,212.839,900.519,177.917,852.87,175.983C802.11,173.923,755.141,201.724,728.552,245.012C700.606,290.511,693.468,347.185,718.863,394.156C745.451,443.334,797.01,477.185,852.87,474.954" fill="rgba(3, 9, 16, 1)" class="triangle-float1"></path><path d="M20.54 305.13 a180.56 180.56 0 1 0 361.12 0 a180.56 180.56 0 1 0 -361.12 0z" fill="rgba(3, 9, 16, 1)" class="triangle-float3"></path><path d="M1255.928,389.543C1271.708,388.569,1287.299,382.769,1295.148,369.045C1302.948,355.407,1299.704,339.229,1292.768,325.132C1284.666,308.666,1274.216,290.86,1255.928,289.338C1235.646,287.65,1216.769,300.293,1206.677,317.966C1196.666,335.496,1195.872,357.838,1207.315,374.468C1217.623,389.448,1237.779,390.664,1255.928,389.543" fill="rgba(3, 9, 16, 1)" class="triangle-float1"></path><path d="M835.45 444.67 a131.44 131.44 0 1 0 262.88 0 a131.44 131.44 0 1 0 -262.88 0z" fill="rgba(3, 9, 16, 1)" class="triangle-float1"></path><path d="M855.66 188.27 a137.31 137.31 0 1 0 274.62 0 a137.31 137.31 0 1 0 -274.62 0z" fill="rgba(3, 9, 16, 1)" class="triangle-float2"></path><path d="M1018.95 403.69 a131.46 131.46 0 1 0 262.92 0 a131.46 131.46 0 1 0 -262.92 0z" fill="rgba(3, 9, 16, 1)" class="triangle-float3"></path><path d="M375.76 502.15 a122.58 122.58 0 1 0 245.16 0 a122.58 122.58 0 1 0 -245.16 0z" fill="rgba(3, 9, 16, 1)" class="triangle-float3"></path><path d="M5.98 418.09 a180.65 180.65 0 1 0 361.3 0 a180.65 180.65 0 1 0 -361.3 0z" fill="rgba(3, 9, 16, 1)" class="triangle-float2"></path><path d="M376.71 201.66 a168.89 168.89 0 1 0 337.78 0 a168.89 168.89 0 1 0 -337.78 0z" fill="rgba(3, 9, 16, 1)" class="triangle-float3"></path><path d="M1321.175,617.266C1355.85,614.864,1381.779,590.207,1400.474,560.905C1421.232,528.37,1444.031,488.751,1424.35,455.553C1404.853,422.665,1359.377,425.615,1321.175,427.144C1286.621,428.527,1251.016,434.813,1231.374,463.275C1208.916,495.819,1200.332,539.233,1220.251,573.39C1240.057,607.354,1281.952,619.983,1321.175,617.266" fill="rgba(3, 9, 16, 1)" class="triangle-float1"></path><path d="M664.733,238.905C697.155,237.703,730.913,231.337,748.634,204.16C767.898,174.618,770.245,135.51,751.729,105.493C733.971,76.705,698.557,67.97,664.733,68.146C631.289,68.32,597.883,78.59,579.291,106.39C558.458,137.54,549.015,179.311,569.322,210.806C588.578,240.671,629.222,240.221,664.733,238.905" fill="rgba(3, 9, 16, 1)" class="triangle-float1"></path><path d="M497.27 145.04 a155.48 155.48 0 1 0 310.96 0 a155.48 155.48 0 1 0 -310.96 0z" fill="rgba(3, 9, 16, 1)" class="triangle-float2"></path><path d="M646.69 500.74 a119.56 119.56 0 1 0 239.12 0 a119.56 119.56 0 1 0 -239.12 0z" fill="rgba(3, 9, 16, 1)" class="triangle-float1"></path><path d="M1304.12 27.68 a96.49 96.49 0 1 0 192.98 0 a96.49 96.49 0 1 0 -192.98 0z" fill="rgba(3, 9, 16, 1)" class="triangle-float1"></path><path d="M1300.828,226.761C1321.164,228.578,1341.02,216.729,1350.616,198.708C1359.734,181.584,1355.027,161.045,1344.495,144.752C1334.917,129.934,1318.463,122.257,1300.828,121.685C1281.965,121.073,1260.743,125.045,1251.961,141.75C1243.517,157.813,1255.344,175.269,1264.388,191.002C1273.478,206.816,1282.66,225.137,1300.828,226.761" fill="rgba(3, 9, 16, 1)" class="triangle-float1"></path><path d="M630.97 143.51 a103.54 103.54 0 1 0 207.08 0 a103.54 103.54 0 1 0 -207.08 0z" fill="rgba(3, 9, 16, 1)" class="triangle-float1"></path><path d="M805.2 180.65 a140.73 140.73 0 1 0 281.46 0 a140.73 140.73 0 1 0 -281.46 0z" fill="rgba(3, 9, 16, 1)" class="triangle-float1"></path><path d="M710.796,349.916C765.751,351.915,821.47,329.034,848.502,281.146C875.161,233.919,865.044,175.077,834.963,129.953C808.02,89.537,759.369,74.759,710.796,74.576C661.824,74.391,610.67,87.307,584.994,129.009C558.249,172.447,564.17,227.394,589.413,271.721C614.94,316.547,659.245,348.041,710.796,349.916" fill="rgba(3, 9, 16, 1)" class="triangle-float1"></path><path d="M819.024,24.792C836.096,23.509,849.092,11.614,858.098,-2.946C867.748,-18.548,875.456,-36.955,867.414,-53.443C858.529,-71.66,839.292,-82.926,819.024,-83.055C798.539,-83.185,779.892,-71.753,769.555,-54.067C759.119,-36.212,757.267,-13.714,768.257,3.805C778.686,20.43,799.453,26.263,819.024,24.792" fill="rgba(3, 9, 16, 1)" class="triangle-float3"></path><path d="M265.959,133.333C293.698,133.746,317.472,116.878,332.744,93.718C350.085,67.422,364.042,34.882,349.201,7.099C333.769,-21.79,298.603,-33.962,265.959,-31.307C237.345,-28.98,216.424,-6.551,203.273,18.968C191.356,42.093,190.025,68.968,202.529,91.781C215.55,115.537,238.871,132.93,265.959,133.333" fill="rgba(3, 9, 16, 1)" class="triangle-float2"></path></g><defs><mask id="SvgjsMask1036"><rect width="1440" height="560" fill="#ffffff"></rect></mask><style>
            @keyframes float1 {
                0%{transform: translate(0, 0)}
                50%{transform: translate(-10px, 0)}
                100%{transform: translate(0, 0)}
            }

            .triangle-float1 {
                animation: float1 5s infinite;
            }

            @keyframes float2 {
                0%{transform: translate(0, 0)}
                50%{transform: translate(-5px, -5px)}
                100%{transform: translate(0, 0)}
            }

            .triangle-float2 {
                animation: float2 4s infinite;
            }

            @keyframes float3 {
                0%{transform: translate(0, 0)}
                50%{transform: translate(0, -10px)}
                100%{transform: translate(0, 0)}
            }

            .triangle-float3 {
                animation: float3 6s infinite;
            }
        </style></defs></svg>