<?xml version="1.0" standalone="no"?>
<!DOCTYPE svg PUBLIC "-//W3C//DTD SVG 20010904//EN"
 "http://www.w3.org/TR/2001/REC-SVG-20010904/DTD/svg10.dtd">
<svg version="1.0" xmlns="http://www.w3.org/2000/svg"
 width="1128.000000pt" height="1280.000000pt" viewBox="0 0 1128.000000 1280.000000"
 preserveAspectRatio="xMidYMid meet">
<metadata>
Created by potrace 1.15, written by Peter Selinger 2001-2017
</metadata>
<g transform="translate(0.000000,1280.000000) scale(0.100000,-0.100000)"
fill="#000000" stroke="none">
<path d="M5572 12787 c-6 -7 -15 -32 -21 -56 -6 -30 -24 -58 -64 -99 -48 -51
-58 -69 -87 -160 -37 -116 -42 -121 -162 -177 -118 -54 -225 -79 -158 -37 29
18 96 124 114 180 38 118 28 182 -27 168 -22 -5 -27 -12 -27 -39 0 -27 -12
-44 -84 -112 -62 -59 -90 -94 -106 -133 -13 -28 -37 -65 -55 -81 -35 -30 -183
-92 -350 -146 -121 -39 -256 -93 -434 -174 -251 -114 -428 -225 -650 -410 -79
-66 -147 -118 -151 -116 -4 3 -10 18 -13 35 -8 35 -59 72 -97 68 -21 -3 -25
-8 -22 -30 2 -17 -7 -43 -23 -65 -30 -46 -30 -45 -3 -110 l21 -52 -26 -38
c-15 -21 -56 -76 -92 -122 -51 -66 -63 -87 -54 -97 6 -8 18 -14 26 -14 26 0
92 40 110 66 49 73 150 166 212 197 l66 32 200 5 c142 4 207 9 225 19 51 28
90 63 90 80 0 16 -12 19 -102 24 -207 12 -289 20 -293 27 -17 28 330 188 354
164 2 -2 -5 -14 -17 -27 -43 -46 -20 -108 48 -128 34 -10 46 -9 81 6 23 11 45
29 50 43 15 39 10 95 -11 130 -11 18 -20 34 -20 36 0 10 155 30 235 29 122 0
194 -17 296 -69 152 -79 240 -196 276 -369 28 -141 -13 -276 -123 -394 -111
-120 -232 -176 -364 -169 -123 7 -212 58 -251 143 -24 52 -24 102 2 144 24 40
33 36 18 -7 -21 -60 30 -117 114 -128 57 -8 79 7 110 75 l20 45 23 -45 c44
-87 111 -127 167 -98 79 41 90 104 32 188 -37 53 -36 60 5 36 52 -30 129 -14
167 35 22 27 15 86 -12 119 -34 39 -84 55 -152 47 l-55 -6 50 48 c27 26 55 65
61 85 36 110 -125 195 -205 109 -13 -15 -32 -47 -41 -72 -24 -65 -30 -68 -43
-19 -6 24 -13 52 -16 61 -10 32 -54 58 -101 58 -36 0 -50 -6 -74 -29 -35 -36
-38 -79 -9 -134 11 -20 20 -39 20 -42 0 -2 -19 -2 -42 1 -84 10 -169 -59 -153
-124 3 -14 24 -44 46 -66 l40 -40 -28 -55 c-23 -45 -28 -68 -27 -118 2 -76 30
-130 104 -196 52 -47 59 -61 37 -70 -19 -7 -47 -69 -47 -102 0 -18 12 -39 35
-62 33 -33 39 -35 81 -30 54 6 94 39 94 77 0 61 -60 83 -70 25 -4 -24 -10 -30
-30 -30 -21 0 -26 5 -28 31 -4 42 22 52 166 64 109 9 123 12 207 54 107 53
188 111 234 169 42 54 90 148 107 212 30 110 6 288 -52 395 -55 102 -175 210
-301 274 -29 14 -53 30 -53 35 0 5 7 22 15 37 19 36 19 56 1 98 -15 37 -53 52
-98 41 -39 -10 -67 -96 -35 -108 20 -8 57 11 57 30 0 12 3 14 11 6 14 -14 -3
-48 -28 -58 -10 -3 -79 -10 -153 -15 -143 -9 -241 -27 -339 -60 -33 -11 -64
-20 -68 -20 -20 0 83 59 201 115 204 98 367 145 501 145 86 0 118 -17 134 -70
7 -23 28 -70 47 -104 34 -63 42 -100 24 -111 -20 -13 -10 -35 16 -35 36 0 91
36 109 70 30 57 8 152 -56 241 -12 17 -19 33 -15 36 8 9 126 -17 161 -34 65
-33 143 -96 161 -128 18 -33 17 -34 -10 -105 -26 -64 -28 -78 -21 -146 6 -71
5 -77 -20 -110 -15 -19 -24 -42 -21 -49 8 -23 57 -18 98 10 52 35 118 138 118
184 0 47 -24 144 -49 204 -11 26 -17 47 -12 47 12 0 82 -57 104 -83 37 -46 69
-122 74 -176 7 -79 -23 -153 -98 -243 -77 -91 -102 -141 -102 -198 -1 -50 26
-110 47 -110 8 0 29 19 47 43 18 23 56 67 84 98 69 75 87 115 84 187 -2 46 10
202 15 202 1 0 34 -31 73 -70 43 -42 80 -70 93 -70 13 0 50 28 93 70 39 39 72
70 73 70 5 0 17 -156 15 -202 -3 -72 15 -112 84 -187 28 -31 66 -75 84 -98 18
-24 39 -43 47 -43 21 0 48 60 47 110 0 57 -25 107 -102 198 -75 90 -105 164
-98 243 5 54 37 130 74 176 22 26 92 83 104 83 5 0 -1 -21 -12 -47 -25 -60
-49 -157 -49 -204 0 -46 66 -149 118 -184 41 -28 90 -33 98 -10 3 7 -6 30 -21
49 -25 33 -26 39 -20 110 7 67 5 82 -20 145 -25 63 -26 73 -15 101 12 30 98
99 165 133 35 18 153 42 161 34 4 -3 -3 -19 -15 -36 -64 -89 -86 -184 -56
-241 18 -34 73 -70 109 -70 26 0 36 22 16 35 -18 11 -10 48 24 111 19 34 40
81 47 104 16 53 48 70 134 70 131 0 296 -47 490 -139 113 -54 230 -120 212
-121 -4 0 -35 9 -68 20 -98 33 -196 51 -341 60 -75 5 -146 13 -156 19 -25 13
-36 41 -22 55 7 7 10 5 10 -7 0 -19 37 -38 58 -30 15 6 16 44 1 77 -24 51
-112 45 -135 -10 -18 -42 -18 -62 1 -98 8 -15 15 -32 15 -37 0 -5 -24 -21 -52
-35 -127 -64 -247 -172 -302 -274 -59 -108 -82 -285 -52 -398 29 -107 105
-225 184 -284 137 -102 224 -137 368 -149 140 -11 166 -21 162 -63 -2 -26 -7
-31 -28 -31 -20 0 -26 6 -30 30 -10 58 -70 36 -70 -25 0 -38 40 -71 94 -77 42
-5 48 -3 81 30 23 23 35 44 35 62 0 33 -28 95 -47 102 -22 9 -15 23 37 70 74
66 102 120 104 196 1 50 -4 73 -27 118 l-28 55 40 40 c22 22 43 52 46 66 16
65 -69 134 -152 124 -24 -3 -43 -3 -43 -1 0 3 9 22 20 42 29 55 26 98 -9 134
-24 23 -38 29 -74 29 -57 0 -93 -28 -107 -83 -24 -93 -25 -93 -53 -17 -23 63
-58 97 -106 105 -56 9 -108 -18 -134 -68 -19 -36 -19 -40 -2 -82 10 -28 34
-60 63 -85 l47 -40 -56 6 c-70 8 -120 -7 -154 -47 -27 -33 -34 -92 -12 -119
38 -49 115 -65 167 -35 41 24 42 17 5 -36 -58 -84 -47 -147 32 -188 56 -29
123 11 167 98 l23 45 20 -45 c31 -68 53 -83 110 -75 84 11 135 68 114 128 -15
43 -6 47 18 7 26 -42 26 -92 2 -144 -39 -85 -128 -136 -251 -143 -132 -7 -253
49 -364 169 -110 118 -151 253 -123 394 36 173 124 290 276 369 102 52 174 69
296 69 80 1 235 -19 235 -29 0 -2 -9 -18 -20 -36 -21 -35 -26 -91 -11 -130 5
-14 27 -32 50 -43 35 -15 47 -16 81 -6 68 20 91 82 48 128 -12 13 -19 25 -17
27 10 10 98 -17 178 -55 105 -49 185 -99 174 -109 -8 -7 -63 -12 -290 -26 -91
-6 -103 -9 -103 -25 0 -17 39 -52 90 -80 18 -10 83 -15 225 -19 l200 -5 66
-32 c62 -31 163 -124 212 -197 18 -26 84 -66 110 -66 8 0 20 6 26 14 9 10 -3
31 -54 97 -36 46 -77 101 -92 122 l-26 38 21 52 c27 65 27 64 -3 110 -16 22
-25 48 -23 65 3 22 -1 27 -22 30 -38 4 -89 -33 -97 -68 -3 -17 -9 -32 -13 -35
-4 -2 -72 50 -151 116 -222 185 -399 296 -650 410 -178 81 -313 135 -434 174
-167 54 -315 116 -350 146 -18 16 -42 53 -55 81 -16 39 -44 74 -106 133 -72
68 -84 85 -84 112 0 27 -5 34 -27 39 -30 8 -53 -15 -53 -51 0 -77 59 -212 123
-279 20 -21 37 -41 37 -42 0 -7 -113 32 -178 61 -122 57 -127 63 -163 177 -28
91 -37 107 -85 159 -41 42 -58 69 -67 104 -14 55 -37 76 -61 56 -9 -8 -16 -24
-16 -37 0 -13 -4 -24 -10 -24 -5 0 -10 10 -10 23 0 40 -36 61 -58 34z m15
-150 c-27 -135 -89 -224 -216 -317 -34 -25 -61 -48 -61 -52 0 -10 91 18 218
68 l112 45 113 -45 c126 -50 217 -78 217 -68 0 4 -27 27 -61 52 -79 58 -157
143 -181 200 -30 68 -52 185 -39 207 10 17 10 17 11 -1 0 -25 45 -101 69 -118
34 -24 71 -90 77 -138 12 -87 50 -129 181 -194 70 -36 305 -109 330 -104 6 2
-24 32 -69 67 -101 81 -163 162 -178 237 -7 31 -10 58 -7 60 2 3 14 -11 25
-30 11 -18 45 -53 76 -76 41 -31 63 -58 86 -103 16 -33 30 -65 30 -72 0 -27
159 -105 335 -165 261 -89 390 -141 570 -230 259 -128 433 -246 670 -454 66
-59 124 -106 129 -106 4 0 5 10 1 23 -14 46 -15 73 -3 96 20 38 31 35 60 -18
26 -48 27 -50 11 -99 -9 -27 -13 -60 -10 -73 4 -13 38 -62 77 -109 78 -93 96
-120 81 -120 -12 0 -55 43 -142 141 -113 127 -233 176 -404 166 -114 -7 -203
3 -260 29 l-40 18 35 3 c19 2 88 10 153 19 147 20 202 14 286 -32 69 -38 92
-37 46 2 -131 108 -372 244 -472 264 -94 20 -173 -16 -173 -79 0 -42 25 -63
69 -59 29 2 37 8 46 32 8 24 6 31 -14 47 -13 11 -21 23 -17 27 10 9 56 -44 56
-64 0 -18 -47 -64 -66 -64 -21 0 -60 17 -77 35 -35 35 -4 125 50 146 38 14 19
28 -74 50 -247 59 -461 16 -640 -131 -103 -84 -140 -151 -172 -309 -17 -85
-18 -98 -4 -164 19 -91 32 -121 82 -195 105 -155 292 -253 456 -239 137 10
244 97 270 215 11 51 -2 97 -41 143 -37 44 -39 65 -3 33 29 -26 57 -84 65
-132 12 -75 -67 -196 -153 -234 -24 -10 -43 -23 -43 -27 0 -5 18 -20 40 -34
44 -30 61 -80 42 -122 -13 -29 -55 -42 -85 -27 -21 10 -21 11 6 11 45 1 67 18
67 51 0 69 -32 87 -178 100 -172 15 -255 50 -365 150 -132 120 -197 271 -183
421 10 115 68 246 144 331 46 51 184 142 247 162 79 26 81 28 41 68 -28 28
-36 44 -36 71 0 20 5 39 10 42 6 4 10 -11 10 -37 0 -24 4 -48 8 -55 14 -22 57
-31 173 -38 234 -13 385 -51 561 -144 101 -52 153 -63 98 -20 -48 37 -259 169
-367 228 -190 105 -403 173 -547 173 -117 1 -178 -30 -192 -96 -9 -43 -61
-140 -90 -167 l-23 -22 -11 27 c-32 85 26 208 117 247 24 10 41 23 38 29 -10
15 -153 12 -220 -5 -111 -29 -231 -119 -255 -190 -11 -33 -9 -46 14 -113 23
-68 25 -86 18 -155 -7 -77 -7 -77 -28 -63 -12 9 -32 37 -44 63 -49 105 -6 280
92 368 26 23 48 46 48 49 0 23 -224 -118 -270 -170 -43 -49 -65 -99 -79 -179
-12 -68 -12 -72 16 -140 16 -38 57 -107 91 -153 63 -86 90 -147 78 -179 -6
-15 -19 -6 -82 60 -86 89 -107 129 -98 186 4 27 0 59 -15 104 -22 66 -22 69 5
187 l6 25 -27 -25 c-15 -14 -45 -50 -66 -82 -42 -61 -104 -118 -129 -118 -25
0 -87 57 -129 118 -21 32 -51 68 -65 81 l-26 25 6 -35 c3 -19 10 -51 16 -72 7
-31 5 -51 -13 -104 -15 -45 -19 -77 -15 -104 9 -57 -12 -97 -98 -186 -63 -66
-76 -75 -82 -60 -12 32 15 93 78 179 34 46 75 115 91 153 28 68 28 72 16 140
-21 121 -60 178 -173 254 -82 55 -168 103 -174 96 -3 -2 18 -25 45 -49 69 -63
105 -145 110 -251 3 -68 0 -86 -19 -124 -13 -24 -33 -50 -44 -58 -21 -13 -21
-12 -27 67 -5 61 -3 92 9 123 37 99 38 113 14 162 -15 32 -40 58 -84 89 -93
67 -154 88 -272 94 -118 5 -141 -7 -71 -37 91 -39 149 -162 117 -247 l-11 -27
-23 22 c-29 27 -81 124 -90 167 -26 121 -232 130 -526 22 -47 -17 -111 -44
-143 -60 -144 -72 -457 -270 -457 -289 0 -17 21 -9 114 41 166 89 332 132 560
145 120 7 164 16 178 38 4 7 8 31 8 55 0 26 4 41 10 37 6 -3 10 -22 10 -42 0
-27 -8 -43 -36 -71 -37 -37 -35 -46 16 -59 70 -17 224 -116 279 -178 71 -81
127 -213 137 -324 14 -150 -51 -301 -183 -421 -110 -100 -193 -135 -365 -150
-146 -13 -178 -31 -178 -100 0 -33 22 -50 67 -51 27 0 27 -1 6 -11 -30 -15
-72 -2 -85 27 -19 42 -2 92 42 122 22 14 40 29 40 34 0 5 -17 16 -37 24 -90
38 -171 159 -159 238 8 47 36 105 65 131 36 32 34 11 -3 -33 -39 -47 -51 -86
-41 -139 22 -119 132 -208 270 -219 164 -14 351 84 456 239 50 74 63 104 82
195 14 66 13 79 -4 164 -32 158 -69 225 -172 309 -179 147 -393 190 -640 131
-93 -22 -112 -36 -74 -50 54 -21 85 -111 50 -146 -17 -18 -56 -35 -77 -35 -19
0 -66 46 -66 64 0 20 46 73 56 64 4 -4 -4 -16 -17 -27 -20 -16 -22 -23 -14
-47 9 -24 17 -30 46 -32 44 -4 69 17 69 59 0 63 -79 99 -173 79 -100 -20 -341
-156 -472 -264 -46 -39 -23 -40 46 -2 84 46 139 52 286 32 65 -9 134 -17 153
-19 l35 -3 -40 -18 c-57 -26 -146 -36 -260 -29 -171 10 -291 -39 -404 -166
-87 -98 -130 -141 -142 -141 -15 0 3 27 81 120 39 47 73 96 77 109 3 13 -1 46
-10 73 -16 49 -15 51 11 99 29 53 40 56 60 18 12 -23 11 -50 -3 -96 -4 -13 -3
-23 1 -23 5 0 63 47 129 106 366 322 669 489 1240 684 176 60 335 138 335 165
0 7 14 39 30 72 23 45 45 72 86 103 31 23 65 58 76 76 11 19 23 33 25 30 3 -2
0 -29 -7 -60 -15 -75 -77 -156 -178 -237 -45 -35 -75 -65 -69 -67 25 -5 260
68 330 104 131 65 169 107 181 193 6 47 58 141 77 141 14 0 69 91 69 114 1 20
1 20 11 3 8 -13 7 -38 -4 -90z m66 -12 c10 -70 61 -169 118 -230 28 -30 47
-55 41 -55 -6 0 -47 17 -92 39 l-80 38 -80 -38 c-45 -22 -86 -39 -92 -39 -6 0
12 24 39 53 28 29 58 68 68 87 25 48 55 139 55 167 0 40 17 25 23 -22z m-1669
-1103 c-6 -9 -24 -19 -40 -20 l-29 -4 23 24 c12 13 22 31 22 38 0 11 4 10 17
-3 14 -13 15 -21 7 -35z m3360 0 l21 -24 -29 4 c-38 4 -55 30 -36 53 11 14 15
14 18 4 3 -8 14 -25 26 -37z m-2766 -88 c12 -14 22 -35 22 -47 0 -34 -44 -91
-95 -125 -45 -30 -47 -30 -76 -14 -28 16 -30 20 -25 60 10 72 41 131 78 147
40 17 66 11 96 -21z m2218 21 c39 -16 70 -73 80 -147 5 -40 3 -44 -25 -60 -29
-16 -31 -16 -76 14 -51 34 -95 91 -95 123 0 35 37 75 78 84 1 1 18 -6 38 -14z
m-2506 -27 c10 -18 27 -65 37 -106 15 -64 15 -75 2 -83 -7 -5 -19 -9 -25 -9
-16 0 -97 65 -120 97 -38 51 -39 70 -5 103 41 42 84 41 111 -2z m2811 2 c34
-33 33 -52 -5 -103 -23 -32 -104 -97 -120 -97 -6 0 -18 4 -25 9 -13 8 -13 19
2 83 24 101 48 138 88 138 21 0 40 -10 60 -30z m-2893 -206 c28 -14 62 -39 74
-55 13 -16 34 -43 47 -60 l24 -31 -27 -84 c-35 -106 -60 -138 -111 -138 -43 0
-85 39 -85 78 0 26 53 78 134 134 58 40 52 58 -15 43 -103 -24 -217 -7 -233
34 -35 91 76 137 192 79z m3036 5 c41 -32 34 -89 -15 -114 -32 -17 -133 -19
-198 -4 -67 15 -73 -3 -15 -43 81 -56 134 -108 134 -134 0 -39 -42 -78 -85
-78 -51 0 -76 32 -111 138 l-27 84 24 31 c13 17 34 44 47 60 54 70 190 104
246 60z m-2820 -15 c50 -49 -24 -124 -76 -77 -24 21 -23 48 2 73 24 24 53 26
74 4z m2506 -4 c24 -24 25 -47 3 -72 -45 -50 -116 11 -83 73 14 25 54 25 80
-1z m-2255 -24 c49 -21 61 -49 37 -89 -17 -30 -22 -32 -73 -31 -72 0 -176 49
-171 79 5 25 4 24 49 40 50 18 115 18 158 1z m2107 -6 c35 -17 42 -47 15 -65
-46 -29 -131 -56 -171 -53 -33 2 -43 9 -59 35 -23 39 -11 67 36 89 37 17 137
13 179 -6z m-2289 -142 c82 -101 94 -143 51 -177 -50 -39 -95 -18 -128 59 -56
135 -3 216 77 118z m2387 27 c24 -29 -8 -156 -52 -202 -27 -29 -57 -29 -92 -2
-43 34 -31 76 51 177 36 44 70 54 93 27z"/>
<path d="M5533 12316 c-45 -17 -84 -34 -88 -37 -6 -7 128 -23 195 -23 73 0
202 16 193 24 -14 13 -179 70 -199 69 -10 -1 -56 -15 -101 -33z m140 -13 l32
-17 -32 -7 c-18 -3 -48 -3 -65 0 l-33 7 30 17 c37 20 30 20 68 0z"/>
<path d="M5180 12209 c-154 -28 -429 -97 -575 -145 -220 -71 -246 -92 -73 -59
247 47 853 70 1476 55 359 -9 586 -26 740 -55 173 -33 147 -12 -73 59 -181 59
-475 130 -613 149 -73 10 -97 8 -205 -11 -153 -28 -288 -29 -425 -2 -107 21
-176 23 -252 9z m235 -44 c97 -21 353 -20 458 1 121 25 235 15 462 -39 105
-25 208 -49 229 -52 63 -10 23 -22 -46 -13 -52 6 -754 31 -878 31 -124 0 -826
-25 -878 -31 -69 -9 -109 3 -46 13 21 3 125 26 229 50 105 24 199 46 210 48
47 10 195 6 260 -8z"/>
<path d="M5395 12041 l-170 -6 40 -21 c104 -55 306 -144 327 -144 13 0 29 5
36 12 9 9 15 9 24 0 7 -7 23 -12 36 -12 23 0 337 141 356 161 6 5 -37 9 -115
9 -69 0 -179 2 -245 4 -65 2 -195 0 -289 -3z m493 -38 c42 -7 36 -13 -66 -57
-77 -33 -90 -36 -182 -36 -92 0 -105 3 -182 36 -46 20 -87 40 -92 44 -9 9 44
18 139 24 74 4 338 -3 383 -11z"/>
<path d="M4895 12020 c-3 -5 7 -12 22 -15 15 -4 71 -19 123 -35 142 -44 227
-99 366 -238 97 -97 130 -123 177 -141 l57 -23 58 23 c46 18 79 44 176 141
139 139 224 194 366 238 52 16 108 31 123 35 103 21 -151 36 -263 15 -29 -5
-125 -46 -215 -90 -179 -87 -225 -125 -225 -183 0 -18 -5 -39 -10 -47 -9 -13
-11 -13 -20 0 -5 8 -10 29 -10 47 0 58 -46 96 -225 183 -90 44 -186 85 -215
90 -68 13 -277 13 -285 0z m270 -25 c88 -16 281 -106 368 -170 61 -45 84 -94
66 -138 -11 -26 -10 -31 6 -43 10 -8 26 -14 35 -14 9 0 25 6 35 14 16 12 17
17 6 43 -29 71 32 132 234 233 111 56 225 90 298 90 33 0 17 -18 -37 -40 -108
-43 -204 -109 -318 -217 -73 -69 -132 -117 -166 -132 l-52 -24 -52 24 c-34 15
-93 63 -166 132 -114 108 -210 174 -318 217 -54 22 -70 40 -36 40 9 0 53 -7
97 -15z"/>
<path d="M5628 11798 c9 -9 15 -9 24 0 9 9 7 12 -12 12 -19 0 -21 -3 -12 -12z"/>
<path d="M2446 11058 c-23 -33 -19 -72 10 -108 16 -18 23 -35 18 -40 -5 -5
-90 -38 -189 -75 -190 -70 -359 -153 -517 -252 -137 -86 -384 -273 -518 -393
-152 -135 -262 -217 -308 -229 -24 -7 -58 -7 -92 -2 -48 8 -64 6 -125 -16 -81
-30 -154 -39 -183 -24 -15 8 -23 6 -38 -10 -24 -27 -11 -47 50 -78 64 -32 230
-42 289 -18 20 9 37 12 37 7 0 -12 -130 -118 -196 -159 -61 -38 -89 -41 -183
-16 -75 19 -116 19 -196 -1 -57 -15 -69 -15 -108 -1 -76 26 -106 -19 -45 -67
l33 -25 -44 15 c-33 11 -46 12 -57 3 -23 -19 -16 -38 25 -77 31 -29 44 -53 61
-111 17 -59 32 -85 69 -125 98 -106 101 -112 101 -179 0 -66 -14 -165 -32
-232 l-10 -40 -14 53 c-19 71 -58 136 -120 199 -51 51 -90 71 -119 59 -23 -8
-18 -46 10 -68 26 -20 55 -100 55 -150 0 -39 22 -90 60 -136 60 -75 59 -127
-6 -452 -19 -96 -47 -274 -61 -395 -22 -193 -24 -246 -19 -430 4 -176 11 -241
39 -403 18 -106 30 -195 25 -198 -4 -3 -22 -2 -40 1 -25 5 -42 1 -68 -17 -41
-28 -53 -68 -21 -68 14 0 27 -13 41 -39 25 -51 55 -71 102 -71 50 0 64 -17
111 -138 21 -53 44 -109 50 -124 9 -21 9 -35 0 -55 -6 -16 -29 -72 -50 -125
-47 -121 -61 -138 -111 -138 -47 0 -77 -20 -102 -71 -14 -26 -27 -39 -41 -39
-32 0 -20 -40 21 -68 26 -18 43 -22 68 -17 18 3 36 4 40 1 5 -3 -7 -92 -25
-198 -28 -162 -35 -227 -39 -403 -5 -184 -3 -237 19 -430 14 -121 42 -299 61
-395 64 -320 65 -378 6 -451 -37 -47 -60 -98 -60 -137 0 -50 -29 -130 -55
-150 -28 -22 -33 -60 -10 -68 29 -12 68 8 119 59 62 63 101 128 120 199 l14
53 10 -40 c18 -67 32 -166 32 -232 0 -67 -3 -73 -101 -179 -37 -40 -52 -66
-69 -125 -17 -58 -30 -82 -61 -111 -41 -39 -48 -58 -25 -77 11 -9 24 -8 57 3
l44 15 -33 -25 c-61 -48 -31 -93 45 -67 39 14 51 14 108 -1 79 -20 124 -20
195 -1 95 26 130 21 204 -29 74 -50 176 -135 176 -147 0 -4 -17 -1 -37 8 -60
24 -223 15 -287 -17 -63 -32 -76 -52 -52 -79 15 -16 23 -18 38 -10 29 15 102
6 183 -24 61 -22 77 -24 125 -16 34 5 68 5 92 -2 46 -12 154 -93 308 -229 136
-121 384 -309 518 -393 158 -99 327 -182 517 -252 99 -37 184 -70 189 -75 5
-5 -2 -22 -18 -40 -31 -37 -34 -78 -7 -111 18 -23 20 -23 38 -7 14 13 34 17
67 16 46 -2 50 0 88 45 46 54 52 55 193 32 50 -8 105 -15 123 -15 27 0 32 3
32 25 0 41 -64 76 -157 86 -196 20 -298 95 -404 300 -73 140 -131 200 -209
216 -45 8 -47 -17 -8 -84 19 -32 49 -94 67 -138 18 -44 42 -95 53 -112 19 -32
19 -33 1 -33 -43 0 -269 155 -294 201 -11 21 -10 22 26 16 31 -5 41 -2 61 20
47 50 24 132 -47 169 -24 12 -37 13 -64 4 -32 -10 -85 -61 -98 -92 -14 -33
-144 143 -198 269 -33 77 -34 80 -34 223 l0 145 38 79 c96 195 288 304 486
276 180 -26 335 -127 393 -258 32 -70 36 -186 10 -238 -36 -70 -74 -97 -139
-100 -53 -3 -55 -3 -23 7 19 5 45 21 58 35 31 35 31 108 -1 155 -23 33 -25 34
-90 33 -68 -1 -78 4 -53 25 23 19 56 98 56 134 0 34 -30 72 -78 96 -51 27
-111 -13 -150 -99 -17 -38 -20 -41 -21 -20 -2 33 -33 101 -57 122 -10 9 -36
19 -56 23 -34 7 -41 4 -73 -28 -31 -31 -35 -41 -35 -85 0 -41 7 -60 35 -102
19 -29 35 -54 35 -56 0 -3 -14 3 -32 12 -17 9 -57 19 -89 21 -56 6 -60 4 -94
-30 -30 -30 -35 -42 -35 -81 0 -39 5 -51 38 -86 34 -35 44 -40 83 -40 24 0 61
4 82 9 20 5 37 6 37 3 0 -2 -20 -27 -45 -53 -38 -41 -45 -54 -45 -90 0 -33 6
-47 34 -75 53 -53 122 -40 166 31 12 19 25 35 29 35 4 0 13 -16 20 -35 12 -35
58 -77 96 -89 56 -17 112 33 124 113 l6 36 71 6 c128 10 199 78 228 223 l13
61 47 -3 c84 -6 137 34 136 105 -1 54 -57 113 -107 113 -31 0 -65 -36 -61 -63
3 -19 9 -22 48 -22 39 0 45 -3 48 -22 4 -30 -36 -50 -67 -34 -11 7 -47 51 -80
99 -68 102 -112 144 -208 200 -118 69 -166 84 -285 90 -89 4 -118 1 -175 -16
-87 -27 -172 -82 -244 -159 -105 -110 -149 -233 -153 -423 -2 -116 -3 -125
-21 -126 -11 -1 -30 -2 -43 -3 -32 -2 -82 -53 -82 -85 0 -14 13 -40 29 -58 26
-29 31 -31 61 -22 42 12 59 36 40 59 -8 10 -23 15 -37 12 -15 -3 -22 0 -20 7
6 19 48 19 69 -1 12 -10 55 -69 96 -132 47 -71 109 -148 168 -207 51 -52 90
-94 87 -94 -3 0 -44 23 -91 52 -259 156 -493 390 -509 507 -4 32 0 43 27 72
17 19 49 64 71 101 37 63 42 68 74 68 41 0 45 17 12 47 -92 84 -196 42 -272
-108 -14 -27 -30 -47 -35 -44 -5 3 -19 38 -31 77 -36 117 -15 278 41 308 10 6
47 13 81 17 48 5 71 13 104 39 64 48 84 57 122 51 109 -18 65 78 -47 102 -28
6 -74 11 -103 11 -46 0 -58 -5 -108 -44 -31 -24 -76 -70 -100 -101 l-44 -56
-3 31 c-5 45 23 131 61 186 69 101 183 139 326 110 148 -29 233 -13 280 53 29
41 24 65 -14 69 -17 1 -77 12 -135 23 -124 25 -163 21 -222 -19 -23 -16 -65
-37 -93 -46 -27 -10 -61 -24 -74 -33 -23 -15 -24 -14 -17 3 13 32 46 166 46
185 0 28 -61 56 -183 83 l-28 7 43 34 c24 19 65 47 92 62 96 54 113 77 162
213 58 159 58 164 16 168 -83 8 -160 -67 -203 -196 -43 -133 -107 -209 -200
-236 -71 -21 -128 -20 -202 5 -98 32 -97 38 8 54 66 10 165 48 190 73 28 28
65 119 72 178 10 84 -42 116 -71 43 -14 -36 -25 -44 -89 -73 -57 -27 -79 -43
-104 -79 -62 -89 -93 -94 -222 -32 -70 34 -170 122 -171 151 0 8 26 11 77 11
96 -1 143 14 183 59 24 28 30 43 30 82 0 51 -19 90 -38 78 -7 -4 -12 -14 -12
-21 0 -24 -35 -35 -112 -35 -40 0 -90 -5 -110 -10 -62 -18 -89 4 -142 113 -53
107 -80 207 -101 365 -17 132 -20 379 -3 302 26 -115 64 -225 118 -335 80
-164 82 -168 64 -194 -8 -11 -23 -21 -32 -21 -16 1 -16 1 1 11 18 11 22 36 8
58 -14 22 -59 5 -76 -29 -16 -32 -11 -54 23 -92 32 -37 109 -16 143 39 12 19
25 30 32 26 7 -3 32 -20 56 -36 144 -98 340 -139 486 -102 168 43 292 141 365
288 37 75 43 97 53 196 15 149 2 220 -64 362 -55 120 -58 154 -14 165 13 3 29
3 34 -1 18 -11 12 -44 -10 -55 -32 -18 -21 -54 18 -58 63 -6 91 56 58 134 -17
41 -71 69 -116 59 -34 -8 -78 -57 -86 -97 -5 -25 -9 -28 -27 -23 -114 38 -170
47 -212 35 -81 -23 -122 -58 -174 -149 -7 -12 -13 -13 -35 -3 -14 7 -48 12
-75 12 -42 0 -52 -4 -74 -31 -15 -18 -26 -43 -26 -60 0 -34 24 -95 46 -120 14
-15 10 -17 -42 -21 -49 -4 -62 -10 -87 -38 -25 -28 -28 -39 -24 -72 6 -42 37
-84 73 -98 13 -5 45 -3 80 5 80 19 81 19 52 -13 -40 -42 -68 -94 -68 -126 0
-38 37 -101 67 -115 34 -16 95 -14 119 4 28 19 54 75 63 134 l7 46 28 -54 c48
-93 110 -128 177 -101 79 33 77 141 -3 204 l-33 26 72 0 c62 0 75 3 102 26 27
22 31 32 31 76 0 41 -5 54 -28 77 -31 31 -98 46 -157 35 l-35 -6 35 52 c19 29
35 60 35 69 0 28 -47 87 -83 105 -50 23 -72 20 -112 -15 -39 -35 -44 -29 -15
18 43 72 165 92 251 41 96 -57 162 -159 181 -282 10 -63 9 -88 -6 -163 -35
-180 -134 -313 -272 -367 -160 -62 -291 -57 -434 16 -99 51 -167 111 -228 202
-44 66 -122 231 -122 259 0 8 19 12 48 12 38 0 57 6 85 28 33 25 37 33 37 75
0 57 -20 89 -66 108 -51 21 -83 9 -104 -40 l-17 -41 -18 55 c-20 65 -35 345
-17 339 14 -5 132 -169 183 -252 43 -72 67 -83 80 -37 22 81 4 141 -87 292
-36 60 -74 134 -85 165 -34 101 -19 247 37 352 13 25 24 58 24 72 0 48 -12 89
-26 89 -8 0 -14 5 -14 10 0 6 6 10 14 10 14 0 26 41 26 89 0 14 -11 47 -24 72
-57 106 -71 250 -36 356 12 33 43 96 71 139 97 154 122 227 102 304 -15 56
-37 49 -82 -27 -51 -83 -169 -247 -183 -252 -18 -6 -3 274 17 339 l18 55 17
-41 c21 -49 53 -61 104 -40 46 19 66 51 66 108 0 42 -4 50 -37 75 -28 22 -47
28 -85 28 -29 0 -48 4 -48 12 0 28 78 193 122 259 122 182 333 286 521 256
231 -36 367 -170 413 -405 15 -75 16 -100 6 -163 -19 -123 -85 -225 -181 -282
-86 -51 -208 -31 -251 41 -29 47 -24 53 15 18 40 -35 62 -38 112 -15 36 18 83
77 83 105 0 9 -16 40 -35 69 l-35 52 40 -7 c23 -4 63 -2 90 5 65 16 90 46 90
110 0 42 -4 52 -31 74 -26 23 -40 26 -102 26 l-72 1 27 20 c36 27 68 80 68
113 0 67 -57 114 -124 102 -44 -8 -78 -41 -112 -107 l-28 -54 -7 46 c-9 59
-35 115 -63 134 -24 18 -85 20 -119 4 -30 -14 -67 -77 -67 -115 0 -32 28 -84
68 -126 29 -32 28 -32 -52 -13 -35 8 -67 10 -80 5 -36 -14 -67 -56 -73 -98 -4
-33 -1 -44 24 -72 25 -28 38 -34 87 -38 52 -4 56 -6 42 -21 -22 -25 -46 -86
-46 -120 0 -17 11 -42 27 -61 25 -30 29 -31 82 -27 31 2 65 7 77 11 17 6 23 2
33 -22 20 -48 79 -100 139 -122 48 -18 61 -19 115 -9 34 6 77 17 96 25 45 19
48 18 54 -15 8 -40 52 -88 87 -96 41 -9 95 19 114 60 35 73 7 139 -57 133 -39
-4 -50 -40 -18 -58 22 -11 28 -44 10 -55 -5 -4 -21 -4 -34 -1 -45 11 -41 45
14 166 66 141 80 221 63 371 -9 89 -17 115 -52 187 -73 146 -197 244 -365 287
-146 37 -342 -4 -486 -102 -24 -16 -49 -33 -56 -36 -7 -4 -20 7 -32 26 -34 55
-111 76 -143 40 -34 -39 -39 -61 -23 -93 17 -34 62 -51 76 -29 14 22 10 47 -9
58 -16 10 -16 10 0 11 9 0 24 -10 32 -21 18 -26 16 -30 -64 -194 -54 -110 -92
-220 -118 -335 -17 -77 -14 170 3 302 21 158 48 258 101 365 53 109 80 131
142 113 20 -5 70 -10 110 -10 77 0 112 -11 112 -35 0 -7 5 -17 12 -21 19 -12
38 27 38 78 0 39 -6 54 -30 82 -40 45 -87 60 -182 59 -52 0 -78 3 -78 11 1 29
101 117 171 151 129 62 160 57 222 -32 25 -36 47 -52 104 -79 64 -29 75 -37
89 -73 29 -73 81 -41 71 43 -7 59 -44 150 -72 178 -25 25 -124 63 -190 73
-105 16 -106 22 -8 54 74 25 131 26 202 5 93 -27 157 -103 200 -236 43 -129
120 -204 203 -196 42 4 42 9 -16 168 -49 136 -66 159 -162 213 -27 15 -68 43
-92 62 l-43 34 28 7 c122 27 183 55 183 83 0 19 -33 153 -46 185 -7 17 -6 18
17 3 13 -9 47 -23 74 -33 28 -9 70 -30 93 -46 59 -40 98 -44 222 -19 58 11
118 22 135 23 38 4 43 28 14 69 -47 66 -132 82 -280 53 -143 -29 -257 9 -326
110 -38 55 -66 141 -61 186 l3 31 44 -56 c24 -31 69 -77 100 -101 50 -39 62
-44 108 -44 29 0 75 5 103 11 112 24 156 120 47 102 -38 -6 -58 3 -122 51 -33
26 -56 34 -104 39 -34 4 -71 11 -81 17 -32 17 -49 64 -56 153 -6 70 -3 96 15
155 12 39 26 74 31 77 5 3 21 -17 35 -44 76 -150 180 -192 273 -108 32 30 28
47 -13 47 -32 0 -37 5 -74 68 -22 37 -54 82 -71 101 -27 29 -31 40 -27 72 16
117 250 351 509 507 47 29 88 52 91 52 3 0 -36 -42 -87 -94 -59 -59 -121 -136
-168 -207 -41 -63 -84 -122 -96 -132 -21 -20 -63 -20 -69 -1 -2 7 5 10 20 7
14 -3 29 2 37 12 19 23 2 47 -40 59 -30 9 -35 7 -61 -22 -16 -18 -29 -44 -29
-58 0 -32 50 -83 82 -85 13 -1 32 -2 43 -3 18 -1 19 -10 21 -126 4 -190 48
-313 153 -423 72 -77 157 -132 244 -159 57 -17 86 -20 175 -16 119 6 167 21
285 90 96 56 140 98 209 201 32 48 70 93 82 99 32 14 68 -6 64 -35 -3 -19 -9
-22 -48 -22 -39 0 -45 -3 -48 -22 -4 -27 30 -63 61 -63 50 0 106 59 107 113 1
71 -52 111 -136 105 l-47 -3 -13 61 c-29 145 -100 213 -228 223 l-71 6 -6 36
c-12 80 -68 130 -124 113 -38 -12 -84 -54 -96 -89 -7 -19 -16 -35 -20 -35 -4
0 -17 16 -29 35 -44 71 -113 84 -166 31 -28 -28 -34 -42 -34 -75 0 -36 7 -49
45 -90 25 -26 45 -51 45 -53 0 -3 -17 -2 -37 3 -21 5 -58 9 -82 9 -39 0 -49
-5 -83 -40 -33 -35 -38 -47 -38 -86 0 -39 5 -51 35 -81 34 -34 38 -36 94 -30
32 2 72 12 89 21 18 9 32 15 32 12 0 -2 -16 -27 -35 -56 -28 -42 -35 -61 -35
-102 0 -44 4 -54 35 -85 32 -32 39 -35 73 -28 20 4 46 14 56 23 24 21 55 89
57 122 1 21 4 18 21 -20 39 -86 99 -126 150 -99 48 24 78 62 78 96 0 36 -33
115 -56 134 -25 21 -15 29 30 23 25 -4 56 -4 71 0 61 15 88 139 43 190 -13 14
-39 30 -58 35 -32 10 -30 10 23 7 65 -3 103 -30 139 -100 26 -52 22 -168 -10
-238 -74 -168 -313 -286 -519 -257 -151 21 -286 125 -360 275 l-38 79 0 145
c0 143 1 146 34 223 54 126 184 302 198 269 13 -31 66 -82 98 -92 93 -31 177
101 111 173 -20 22 -30 25 -61 20 -36 -6 -37 -5 -26 16 25 46 251 201 294 201
18 0 18 -1 -1 -32 -11 -18 -35 -69 -53 -113 -18 -44 -48 -106 -67 -138 -39
-67 -37 -92 8 -84 78 16 136 76 209 216 106 205 208 280 404 300 93 10 157 45
157 86 0 22 -5 25 -32 25 -18 0 -73 -7 -123 -15 -141 -23 -147 -22 -193 32
-38 46 -41 47 -90 45 -34 -1 -54 3 -62 13 -17 20 -26 19 -44 -7z m179 -86 c33
-38 41 -42 82 -42 26 0 84 7 130 16 46 8 94 14 106 11 20 -3 20 -4 -8 -16 -16
-7 -76 -21 -132 -31 -110 -20 -182 -50 -253 -108 -64 -52 -73 -64 -142 -190
-45 -82 -77 -127 -116 -163 -29 -27 -57 -49 -62 -49 -5 0 2 19 15 43 13 23 40
82 59 129 58 144 90 186 185 240 67 39 51 48 -27 17 -213 -84 -426 -227 -471
-317 -20 -38 -16 -101 7 -124 27 -27 71 -26 94 2 21 26 22 43 7 71 -9 17 -17
19 -51 14 -29 -5 -39 -4 -34 4 4 6 25 11 46 11 43 0 60 -18 60 -65 0 -34 -44
-75 -80 -75 -40 0 -90 59 -90 105 0 21 -5 35 -12 35 -17 0 -112 -103 -160
-173 -95 -140 -135 -273 -124 -421 12 -175 50 -261 166 -369 79 -74 119 -97
215 -122 118 -30 231 -17 361 44 155 73 252 196 262 332 7 96 -11 150 -69 213
l-47 51 -82 0 c-69 -1 -79 1 -64 12 24 18 97 16 142 -2 50 -21 79 -50 110
-110 22 -41 26 -63 26 -122 0 -40 3 -73 7 -73 4 0 26 9 50 19 32 15 48 17 68
9 60 -22 78 -69 45 -116 -22 -32 -37 -27 -19 8 23 44 19 67 -15 85 -16 8 -36
15 -44 15 -25 0 -75 -50 -125 -124 -27 -39 -70 -93 -97 -119 -130 -128 -386
-187 -559 -128 -118 40 -234 150 -300 286 -45 92 -62 233 -44 355 7 44 10 82
7 85 -3 3 -19 -2 -35 -11 -34 -20 -69 -14 -104 17 -25 22 -18 21 43 -5 34 -14
38 -14 60 4 14 10 63 76 110 147 121 180 233 292 382 383 161 99 136 110 -44
20 -276 -138 -444 -254 -586 -402 -103 -108 -143 -176 -151 -252 -5 -52 -4
-55 35 -98 41 -45 102 -148 102 -174 0 -21 -43 -17 -81 9 -18 12 -47 41 -63
65 -25 35 -31 55 -36 120 l-5 77 -34 -48 c-64 -93 -85 -160 -85 -277 -1 -87 3
-113 21 -152 26 -58 50 -74 133 -88 50 -8 81 -22 132 -57 37 -25 65 -49 63
-53 -3 -4 -21 -11 -40 -14 -51 -10 -132 16 -189 60 -56 43 -123 141 -131 193
-4 20 -9 47 -12 61 -5 24 -6 23 -15 -9 -6 -22 -6 -81 -1 -157 12 -156 35 -208
128 -287 83 -71 114 -77 337 -62 118 8 178 -2 178 -29 0 -13 -178 -56 -230
-56 -22 0 -52 11 -80 30 -25 16 -71 35 -103 41 -46 9 -68 21 -108 57 -27 24
-53 42 -56 38 -3 -3 7 -38 23 -77 50 -123 53 -133 53 -176 1 -41 1 -42 -54
-62 -31 -12 -70 -21 -87 -21 -51 0 -160 -22 -151 -30 4 -4 33 -15 63 -25 39
-12 71 -33 110 -70 31 -29 75 -62 99 -74 48 -25 66 -57 105 -190 22 -76 22
-81 5 -81 -25 0 -65 45 -93 105 -14 28 -38 79 -55 115 -42 90 -99 153 -153
170 -24 7 -47 17 -53 22 -5 4 -47 8 -94 8 -83 0 -88 -2 -186 -51 -143 -73
-226 -139 -110 -88 40 18 62 21 131 17 136 -7 242 -71 275 -167 6 -18 9 -34 6
-37 -14 -14 -146 69 -199 125 l-57 61 -59 0 c-123 0 -279 -112 -350 -250 -34
-67 -29 -90 11 -52 12 11 35 25 50 31 36 14 128 14 164 0 33 -12 84 -59 77
-70 -10 -16 -118 -21 -184 -9 -84 16 -115 8 -157 -37 -72 -76 -129 -233 -159
-435 -26 -181 -10 -743 19 -658 3 8 8 69 11 135 3 66 9 134 15 150 5 17 18 70
30 119 14 60 45 139 96 244 41 85 75 165 75 177 0 16 -14 34 -42 54 -23 17
-36 31 -28 31 7 0 28 -11 47 -26 26 -20 33 -32 33 -59 0 -19 4 -36 8 -39 5 -3
33 16 63 41 70 60 220 131 306 146 82 13 202 -2 302 -39 147 -54 258 -202 297
-393 28 -143 11 -241 -75 -421 -38 -80 -39 -113 -5 -145 36 -33 57 -31 89 8
24 30 26 30 23 8 -4 -31 -49 -65 -76 -57 -46 15 -72 46 -72 86 0 67 -7 73 -46
44 -47 -36 -99 -53 -166 -54 -70 0 -103 12 -146 53 -42 40 -62 78 -62 114 1
23 6 18 29 -33 33 -72 65 -99 132 -113 191 -41 369 146 369 389 0 110 -14 173
-60 266 -57 117 -145 199 -255 237 -158 54 -246 55 -382 1 -152 -60 -266 -161
-343 -305 -47 -89 -90 -209 -90 -251 0 -28 1 -29 22 -14 58 41 158 5 158 -58
0 -90 -116 -117 -133 -30 -6 35 10 30 18 -6 6 -26 11 -30 41 -30 31 0 37 4 50
36 13 32 13 38 0 59 -21 32 -48 39 -90 21 -78 -32 -116 -148 -116 -354 0 -128
16 -306 30 -331 4 -8 10 23 15 75 8 103 31 154 122 267 30 38 66 87 79 110
l24 42 0 -40 c-1 -60 -29 -128 -103 -248 -77 -127 -91 -179 -85 -311 4 -72 12
-109 37 -173 18 -45 34 -99 37 -120 5 -35 4 -36 -9 -20 -8 10 -32 64 -52 120
-43 120 -62 144 -122 153 -48 7 -50 9 -88 67 -27 41 -25 57 6 57 29 0 61 -18
86 -48 12 -14 25 -24 28 -20 3 3 -10 86 -29 184 -92 466 -86 805 24 1368 29
152 40 231 40 301 0 91 -1 96 -30 129 -39 44 -66 108 -75 176 -4 30 -16 70
-26 89 -28 48 -15 51 32 5 69 -67 110 -170 125 -318 7 -66 7 -68 21 -42 28 54
73 278 73 367 0 129 -5 143 -75 212 -55 55 -65 71 -84 135 -13 44 -34 86 -53
107 -72 82 39 9 119 -78 69 -77 95 -149 119 -332 4 -36 8 -45 15 -33 8 14 40
193 54 298 5 41 11 49 63 87 78 57 212 173 212 183 0 5 -29 -5 -65 -21 -36
-16 -104 -39 -150 -50 -90 -21 -162 -17 -252 15 -75 26 -117 65 -48 43 27 -8
48 -7 95 6 79 22 121 21 196 -4 60 -20 65 -20 112 -5 75 25 187 105 296 211
54 53 96 98 94 101 -3 2 -31 -8 -64 -22 -75 -33 -195 -64 -249 -64 -45 0 -135
27 -135 40 0 5 17 9 39 8 21 0 68 11 104 26 67 27 111 31 182 17 68 -12 152
41 390 249 305 266 592 457 865 576 47 20 166 65 265 99 98 34 181 67 182 72
2 6 -14 13 -36 17 -26 4 -47 15 -60 32 -34 43 -28 51 39 50 57 -2 61 -3 95
-44z m-545 -539 c0 -12 -33 -43 -46 -43 -13 0 -37 34 -29 41 6 7 75 8 75 2z
m252 -240 c41 -37 15 -129 -62 -218 -22 -25 -40 -53 -40 -60 0 -17 10 -13 110
34 82 39 121 40 149 5 28 -36 26 -66 -5 -103 -31 -37 -66 -40 -175 -15 l-70
16 -29 62 c-48 101 -38 220 21 270 35 30 74 33 101 9z m-246 -41 c30 -44 52
-165 34 -187 -21 -25 -34 -18 -103 54 -78 80 -84 105 -36 146 42 34 76 30 105
-13z m-81 -224 c36 -12 40 -16 43 -51 2 -37 1 -39 -50 -62 -77 -35 -123 -41
-153 -21 -54 36 -52 110 4 142 29 16 92 13 156 -8z m171 -23 c20 -31 12 -71
-17 -80 -73 -24 -117 66 -46 95 35 14 46 12 63 -15z m107 -130 c86 -66 112
-144 61 -184 -15 -12 -34 -21 -44 -21 -32 0 -85 79 -109 165 -10 36 -9 42 10
58 28 23 29 22 82 -18z m-150 1 c10 -27 -13 -158 -34 -192 -17 -28 -27 -34
-54 -34 -19 0 -41 7 -49 16 -35 34 -10 125 52 192 32 34 76 43 85 18z m-1746
-274 c69 -3 104 -1 142 12 27 9 53 16 56 16 15 0 -12 -24 -80 -70 l-73 -49 -7
-83 c-11 -118 -19 -136 -34 -69 -17 82 -67 165 -136 230 l-63 58 52 -20 c31
-12 86 -21 143 -25z m432 -1521 c20 -20 34 -63 45 -134 4 -33 1 -43 -21 -63
-14 -13 -31 -24 -38 -24 -19 0 -113 105 -121 134 -7 31 11 82 35 96 28 16 80
11 100 -9z m266 -7 c8 -4 22 -19 31 -35 13 -25 13 -32 0 -56 -24 -47 -127
-133 -159 -133 -34 0 -35 57 -3 125 36 77 87 115 131 99z m-178 -229 c25 -18
33 -43 22 -73 -6 -17 -16 -22 -42 -22 -42 0 -57 15 -57 57 0 47 37 66 77 38z
m-201 -17 c46 -12 86 -28 89 -36 10 -27 -15 -49 -80 -70 -115 -38 -165 -24
-165 48 0 47 23 75 64 79 4 1 46 -9 92 -21z m511 -10 c18 -15 16 -69 -3 -97
-15 -21 -22 -23 -83 -19 -86 6 -145 33 -149 70 -4 32 15 44 90 57 59 11 125 6
145 -11z m-221 -150 c68 -71 84 -96 84 -136 0 -61 -66 -101 -120 -72 -25 14
-39 60 -47 157 -8 110 -21 107 -64 -11 -12 -32 -37 -76 -56 -97 -29 -32 -42
-39 -72 -39 -49 0 -61 14 -61 71 0 99 101 166 265 178 13 0 40 -19 71 -51z
m-616 -63 c0 -24 -5 -35 -15 -35 -8 0 -15 9 -15 19 0 11 -4 23 -10 26 -18 11
-10 25 15 25 22 0 25 -4 25 -35z m-59 -1294 c-35 -100 -41 -130 -41 -199 0
-119 14 -170 76 -269 79 -126 105 -185 111 -250 l5 -58 -25 42 c-14 23 -50 72
-80 110 -91 113 -114 164 -122 267 -5 52 -11 83 -15 75 -14 -25 -30 -203 -30
-331 0 -206 38 -322 116 -354 42 -18 69 -11 90 21 13 21 13 27 0 59 -13 32
-19 36 -50 36 -30 0 -35 -4 -41 -30 -4 -16 -10 -30 -15 -30 -12 0 0 42 18 63
37 42 112 -2 112 -67 0 -25 -7 -40 -26 -55 -32 -25 -100 -28 -132 -5 -21 15
-22 14 -22 -14 0 -42 43 -162 90 -251 77 -144 191 -245 343 -305 136 -54 224
-53 382 1 352 122 434 700 123 863 -59 31 -120 41 -177 29 -67 -14 -99 -41
-132 -113 -23 -51 -28 -56 -29 -33 0 36 20 74 62 114 43 41 76 53 146 53 67
-1 119 -18 166 -54 39 -29 46 -23 46 44 0 40 26 71 72 86 27 8 72 -26 76 -57
3 -22 1 -22 -23 9 -32 38 -53 40 -89 7 -36 -34 -33 -62 19 -176 53 -116 75
-193 75 -267 0 -85 -29 -201 -72 -290 -52 -107 -139 -189 -239 -226 -98 -36
-220 -52 -300 -39 -85 14 -240 88 -308 146 -30 25 -58 44 -63 41 -4 -3 -8 -20
-8 -39 0 -27 -7 -39 -33 -59 -19 -15 -40 -26 -47 -26 -8 0 5 14 28 31 28 20
42 38 42 54 0 12 -34 92 -75 177 -51 105 -82 184 -96 244 -12 49 -25 103 -30
119 -6 17 -12 84 -15 150 -7 139 -11 162 -26 125 -6 -14 -13 -140 -16 -280 -5
-281 7 -404 53 -566 45 -152 116 -264 179 -280 16 -4 59 -1 96 6 66 12 174 7
184 -9 7 -11 -44 -58 -77 -70 -36 -14 -128 -14 -164 0 -15 6 -38 20 -50 31
-40 37 -45 15 -11 -51 71 -140 228 -251 352 -251 l57 0 61 65 c43 45 81 74
126 95 36 17 67 28 70 26 8 -8 -17 -68 -43 -102 -14 -18 -54 -47 -91 -65 -89
-44 -206 -52 -279 -20 -26 12 -50 19 -52 17 -9 -8 65 -55 163 -105 98 -49 105
-51 186 -51 46 0 88 4 93 8 6 5 29 15 53 22 30 9 56 29 83 59 38 44 49 64 118
211 34 73 73 120 100 120 17 0 17 -5 -5 -81 -39 -133 -57 -165 -106 -189 -23
-12 -68 -46 -98 -75 -39 -38 -71 -58 -110 -70 -30 -10 -59 -21 -63 -25 -9 -8
100 -30 151 -30 17 0 56 -9 87 -21 55 -20 55 -21 54 -62 0 -43 -3 -53 -53
-176 -16 -39 -26 -74 -23 -78 4 -3 29 15 56 40 28 26 52 47 54 47 37 0 121 27
157 50 28 18 60 30 81 30 52 0 229 -43 229 -56 0 -27 -60 -37 -178 -29 -223
15 -254 9 -337 -62 -93 -79 -116 -131 -128 -287 -5 -76 -5 -135 1 -157 9 -32
10 -33 15 -9 3 14 8 41 12 61 8 52 75 150 131 193 57 44 138 70 189 60 19 -3
37 -10 40 -14 2 -4 -26 -28 -63 -53 -51 -35 -82 -49 -132 -57 -83 -14 -107
-30 -133 -88 -18 -39 -22 -65 -21 -152 0 -117 21 -184 85 -277 l34 -48 5 77
c5 65 11 85 36 120 16 24 45 53 63 65 38 26 81 30 81 9 0 -26 -61 -129 -102
-174 -39 -43 -40 -46 -35 -98 8 -76 48 -144 151 -252 143 -149 321 -271 590
-403 178 -88 199 -77 40 21 -149 91 -261 203 -382 383 -47 71 -96 137 -110
147 -22 18 -26 18 -60 4 -61 -26 -68 -27 -43 -5 35 31 70 37 104 17 16 -9 32
-14 35 -11 3 3 0 41 -7 85 -18 122 -1 263 44 355 71 146 182 247 315 290 74
23 95 26 163 20 221 -19 360 -97 478 -271 50 -74 100 -124 125 -124 8 0 28 7
44 15 34 18 38 41 15 85 -18 35 -3 40 19 8 33 -47 15 -94 -45 -116 -20 -8 -36
-6 -68 9 -24 10 -46 19 -50 19 -4 0 -7 -33 -7 -72 1 -111 -50 -196 -136 -233
-45 -18 -118 -20 -142 -2 -15 11 -5 13 64 12 l82 0 47 51 c58 63 76 117 69
213 -10 136 -107 259 -262 332 -130 61 -243 74 -361 44 -96 -25 -136 -48 -215
-122 -116 -108 -154 -194 -166 -369 -11 -148 29 -281 124 -421 48 -70 143
-173 160 -173 7 0 12 14 12 35 0 46 50 105 90 105 36 0 80 -41 80 -75 0 -47
-17 -65 -60 -65 -21 0 -42 5 -46 11 -5 8 5 9 34 4 35 -6 42 -4 52 15 26 48
-23 110 -72 91 -13 -5 -30 -16 -37 -25 -16 -19 -17 -87 0 -118 45 -90 258
-233 471 -317 78 -31 94 -22 27 17 -95 54 -127 96 -185 240 -19 47 -46 106
-59 129 -13 24 -20 43 -15 43 5 0 33 -22 62 -49 39 -36 71 -81 116 -163 69
-126 78 -138 142 -190 71 -58 142 -88 253 -108 56 -10 116 -24 132 -31 28 -12
28 -13 8 -16 -12 -3 -60 3 -106 11 -46 9 -104 16 -130 16 -41 0 -49 -4 -82
-42 -34 -41 -38 -42 -95 -44 -67 -1 -73 7 -39 50 13 17 34 28 60 32 22 4 38
11 36 17 -1 5 -84 38 -182 72 -208 72 -313 116 -443 186 -207 110 -441 275
-657 463 -187 163 -238 203 -309 243 -62 36 -74 39 -110 32 -71 -14 -116 -10
-183 17 -36 15 -83 26 -104 26 -22 -1 -39 3 -39 8 0 13 90 40 135 40 54 0 174
-31 249 -64 33 -14 61 -24 64 -22 2 3 -40 48 -94 101 -109 106 -221 186 -296
211 -47 15 -52 15 -112 -5 -75 -25 -107 -26 -192 -5 -51 13 -74 14 -100 6 -19
-5 -34 -7 -34 -3 0 12 54 39 115 56 114 34 227 20 373 -46 34 -15 62 -24 62
-19 0 10 -134 126 -212 183 -52 38 -58 46 -63 87 -14 105 -46 284 -54 298 -7
12 -11 3 -15 -33 -24 -183 -50 -255 -119 -332 -80 -87 -191 -160 -119 -78 19
21 40 63 53 107 19 64 29 80 84 135 70 69 75 83 75 212 0 89 -45 313 -73 367
-14 26 -14 24 -21 -42 -15 -148 -56 -251 -125 -318 -47 -46 -60 -43 -32 5 10
19 22 59 26 89 9 68 36 132 75 176 29 33 30 38 30 129 0 70 -11 149 -40 302
-67 340 -83 494 -84 763 -1 257 10 361 65 631 17 83 28 154 24 157 -3 3 -16
-6 -28 -20 -25 -30 -57 -48 -86 -48 -31 0 -33 16 -6 57 38 58 40 60 89 67 56
9 75 31 112 129 44 120 66 164 71 144 3 -10 -14 -71 -36 -136z m734 -786 c30
-29 33 -78 9 -115 -10 -14 -40 -49 -68 -78 l-50 -52 -66 6 c-76 8 -147 42
-191 91 -23 27 -29 43 -29 81 0 58 12 72 61 72 30 0 43 -7 72 -39 19 -21 44
-65 56 -97 43 -119 56 -121 65 -10 7 93 18 135 43 154 27 20 72 14 98 -13z
m-675 -130 c0 -31 -3 -35 -25 -35 -25 0 -33 14 -15 25 6 3 10 15 10 26 0 10 7
19 15 19 10 0 15 -11 15 -35z m835 -118 c20 -29 19 -81 -2 -98 -20 -18 -132
-16 -188 3 -35 11 -40 17 -40 43 0 25 6 33 39 48 81 38 166 40 191 4z m-500 1
c65 -21 90 -43 80 -71 -3 -7 -45 -24 -93 -36 -120 -31 -152 -18 -152 62 0 68
52 83 165 45z m214 -50 c11 -31 3 -57 -26 -75 -36 -24 -73 -4 -73 40 0 42 15
57 57 57 26 0 36 -5 42 -22z m74 -100 c49 -33 97 -80 113 -110 13 -25 13 -32
-1 -57 -36 -71 -116 -38 -164 69 -21 46 -25 77 -15 104 8 22 30 20 67 -6z
m-160 -12 c22 -20 25 -30 21 -63 -11 -71 -25 -114 -45 -134 -20 -20 -69 -25
-98 -9 -25 13 -45 64 -37 96 8 29 102 134 121 134 7 0 24 -11 38 -24z m-418
-1544 l7 -83 73 -49 c68 -46 95 -70 80 -70 -3 0 -29 7 -56 16 -66 22 -212 15
-285 -13 l-52 -20 63 58 c69 65 119 148 136 230 15 67 23 49 34 -69z m1674
-256 c21 -34 44 -165 34 -192 -9 -25 -53 -16 -85 18 -62 67 -87 158 -52 192 8
9 30 16 49 16 27 0 37 -6 54 -34z m245 -7 c53 -41 20 -129 -72 -193 -40 -27
-43 -28 -67 -12 -20 13 -24 22 -19 44 10 44 54 135 76 159 27 28 48 29 82 2z
m-347 -224 c50 -22 52 -25 51 -60 -2 -42 -11 -49 -94 -66 -50 -10 -67 -10 -93
1 -63 26 -75 100 -22 141 32 25 79 20 158 -16z m177 -21 c21 -20 20 -47 -2
-74 -21 -26 -64 -20 -86 12 -36 50 44 106 88 62z m310 -15 c31 -37 33 -67 5
-103 -28 -35 -67 -34 -149 5 -100 47 -110 51 -110 34 0 -7 18 -35 40 -60 53
-61 80 -116 80 -161 0 -72 -61 -97 -119 -48 -59 50 -69 169 -21 270 l29 62 63
15 c35 9 84 16 110 16 40 1 50 -3 72 -30z m-364 -114 c11 -13 11 -29 1 -85
-23 -125 -75 -169 -140 -115 -48 41 -42 66 36 146 69 72 82 79 103 54z m-58
-442 c10 -9 18 -20 18 -24 0 -6 -47 -6 -78 0 -1 1 2 10 8 21 13 24 28 25 52 3z"/>
<path d="M1354 10218 c-217 -187 -502 -484 -566 -589 -20 -34 -51 -102 -68
-153 -17 -51 -45 -117 -64 -147 -18 -30 -44 -74 -58 -99 -15 -25 -53 -76 -87
-114 -96 -109 -118 -156 -201 -429 -44 -143 -101 -377 -124 -509 -13 -72 10
-37 54 84 49 133 196 439 280 583 29 50 86 155 128 235 41 80 103 188 137 240
34 52 108 174 165 270 128 216 241 385 345 514 113 140 118 146 113 152 -3 2
-27 -15 -54 -38z m-160 -202 c-16 -25 -65 -98 -110 -163 -45 -65 -125 -194
-179 -288 -54 -93 -120 -202 -145 -240 -26 -39 -73 -120 -103 -180 -31 -61
-91 -168 -133 -240 -72 -123 -164 -303 -227 -443 -15 -34 -32 -62 -37 -62 -13
0 -13 6 4 38 7 15 39 115 71 222 73 246 104 313 194 420 40 47 82 103 93 125
12 22 38 68 60 102 21 34 56 109 77 166 52 144 75 179 207 320 63 67 145 157
181 199 37 42 69 75 72 73 2 -3 -9 -25 -25 -49z"/>
<path d="M1122 9830 c-41 -55 -84 -135 -108 -198 -29 -74 -47 -256 -42 -403
l3 -101 45 -38 c25 -21 42 -42 38 -46 -4 -4 -28 1 -53 11 -30 11 -58 15 -80
11 -40 -8 -323 -192 -367 -239 -65 -70 -158 -227 -158 -267 0 -8 19 7 42 34
111 130 280 227 466 270 120 28 151 40 219 88 41 30 41 31 48 107 6 69 3 87
-29 192 -19 64 -39 142 -44 172 -16 104 11 321 53 420 12 27 -9 20 -33 -13z
m-37 -287 c0 -169 2 -185 33 -308 27 -105 32 -140 27 -186 -6 -55 -8 -56 -60
-88 -29 -18 -98 -45 -152 -61 -186 -54 -250 -83 -381 -177 -74 -53 -81 -39
-16 38 78 94 184 174 323 244 63 31 82 36 120 32 34 -4 51 -12 69 -34 l23 -28
24 28 c14 15 25 39 25 53 0 19 -5 24 -26 24 -68 0 -93 45 -101 183 -7 118 9
253 39 341 19 56 45 116 51 116 1 0 2 -80 2 -177z"/>
<path d="M900 9464 c-34 -60 -82 -136 -105 -169 -23 -33 -61 -98 -85 -145 -23
-47 -67 -129 -97 -183 -31 -54 -54 -99 -52 -101 6 -6 302 201 317 221 6 9 12
27 12 40 0 13 4 23 10 23 27 0 40 53 55 224 9 98 14 183 12 189 -2 6 -32 -39
-67 -99z m30 -125 c-6 -52 -18 -108 -28 -126 -58 -106 -72 -130 -94 -150 -29
-28 -151 -113 -155 -109 -2 2 25 61 59 132 70 144 211 364 225 350 2 -2 -1
-45 -7 -97z"/>
<path d="M563 9444 l-80 -66 -18 -104 c-10 -58 -15 -107 -12 -111 4 -3 14 9
24 27 10 17 39 59 66 92 26 33 47 68 47 77 0 9 16 46 35 84 19 37 31 67 26 67
-5 0 -44 -30 -88 -66z m2 -81 c-9 -21 -25 -47 -35 -58 -20 -19 -20 -19 -20 15
0 25 7 40 28 57 38 32 45 28 27 -14z"/>
<path d="M956 9105 c-3 -9 0 -15 9 -15 9 0 12 6 9 15 -4 8 -7 15 -9 15 -2 0
-5 -7 -9 -15z"/>
<path d="M186 4623 c36 -205 136 -578 196 -733 28 -72 79 -152 140 -218 26
-30 60 -75 75 -100 14 -26 41 -71 59 -101 19 -30 47 -96 64 -147 44 -131 86
-194 250 -371 127 -137 356 -355 418 -399 36 -25 25 -2 -29 61 -131 155 -257
338 -409 595 -57 96 -131 218 -165 270 -34 52 -96 160 -137 240 -42 80 -99
186 -128 235 -84 144 -231 450 -280 583 -44 121 -67 156 -54 85z m111 -285
c59 -133 155 -318 227 -443 42 -71 101 -179 132 -240 31 -60 78 -141 104 -180
25 -38 91 -146 145 -240 54 -93 134 -223 179 -288 112 -163 140 -207 135 -212
-3 -2 -35 31 -72 73 -36 42 -118 132 -181 199 -132 141 -155 176 -207 320 -21
57 -56 132 -77 166 -22 34 -48 80 -60 102 -11 22 -53 78 -93 125 -90 107 -121
174 -194 420 -32 107 -64 207 -71 222 -17 32 -17 38 -4 38 5 0 22 -28 37 -62z"/>
<path d="M400 4240 c0 -40 93 -197 157 -265 44 -48 328 -233 367 -240 23 -5
50 -1 81 10 25 10 49 15 53 11 4 -4 -13 -25 -38 -46 l-45 -38 -3 -101 c-5
-147 13 -329 42 -403 34 -92 118 -228 139 -228 5 0 6 8 2 18 -42 98 -69 315
-53 419 5 30 25 108 44 172 32 105 35 123 29 192 -7 76 -7 77 -48 107 -68 48
-99 60 -219 88 -186 43 -355 140 -466 270 -23 27 -42 42 -42 34z m265 -237
c61 -36 136 -65 268 -103 54 -16 123 -43 152 -61 52 -32 54 -33 60 -88 5 -46
0 -81 -27 -186 -31 -123 -33 -139 -33 -307 0 -97 -3 -174 -7 -172 -10 6 -56
133 -70 194 -7 31 -13 119 -13 205 0 123 4 156 18 182 20 37 44 53 81 53 21 0
26 5 26 24 0 14 -11 38 -25 53 l-24 28 -23 -28 c-18 -22 -35 -30 -69 -34 -38
-4 -57 1 -120 32 -139 70 -245 150 -323 244 -65 77 -58 91 17 38 34 -25 85
-58 112 -74z"/>
<path d="M560 3935 c0 -4 22 -46 49 -94 26 -47 70 -129 96 -181 26 -52 67
-122 90 -155 23 -33 71 -109 105 -169 35 -60 65 -105 67 -99 2 6 -3 91 -12
189 -15 171 -28 224 -55 224 -6 0 -10 9 -10 19 0 39 -15 53 -144 143 -72 50
-143 100 -158 110 -16 11 -28 16 -28 13z m147 -120 c97 -72 124 -97 145 -138
11 -23 29 -52 39 -65 28 -36 64 -262 39 -247 -26 16 -160 231 -217 349 -35 71
-63 130 -63 132 0 9 13 2 57 -31z"/>
<path d="M956 3695 c4 -8 7 -15 9 -15 2 0 5 7 9 15 3 9 0 15 -9 15 -9 0 -12
-6 -9 -15z"/>
<path d="M451 3618 c0 -13 8 -62 17 -110 l17 -88 79 -65 c43 -36 82 -65 87
-65 4 0 -7 30 -26 68 -19 37 -35 74 -35 84 0 9 -20 40 -43 70 -24 29 -51 67
-60 85 -22 41 -37 50 -36 21z m114 -180 c18 -44 15 -46 -25 -16 -23 17 -30 30
-30 57 0 35 0 35 20 16 10 -11 26 -37 35 -57z"/>
<path d="M8790 11065 c-8 -10 -28 -14 -62 -13 -49 2 -52 1 -90 -45 -46 -54
-52 -55 -193 -32 -49 8 -105 15 -122 15 -28 0 -33 -3 -33 -25 0 -41 64 -76
157 -86 188 -19 297 -98 398 -288 27 -52 62 -111 77 -132 49 -67 160 -122 174
-86 3 9 -9 41 -28 74 -19 32 -49 94 -67 138 -18 44 -42 94 -52 112 -11 17 -16
34 -11 37 23 14 278 -159 303 -205 11 -21 10 -22 -26 -16 -31 5 -41 2 -61 -20
-47 -50 -24 -132 47 -169 24 -12 37 -13 64 -4 32 10 85 61 98 92 14 33 144
-143 198 -269 33 -77 34 -80 34 -223 l0 -145 -38 -79 c-49 -100 -142 -195
-230 -237 -188 -87 -434 -36 -582 122 -62 66 -87 126 -93 220 -5 88 8 126 63
179 30 29 42 34 92 36 53 3 55 3 23 -7 -19 -5 -45 -21 -57 -35 -46 -51 -19
-175 42 -190 15 -4 46 -4 71 0 24 3 44 4 44 1 0 -2 -14 -24 -31 -49 -43 -61
-51 -127 -18 -162 77 -82 154 -61 207 56 17 38 20 41 21 20 2 -33 33 -101 57
-122 10 -9 36 -19 56 -23 34 -7 41 -4 73 28 31 31 35 41 35 85 0 41 -7 60 -35
102 -19 29 -35 54 -35 56 0 3 14 -3 32 -12 17 -9 57 -19 89 -21 56 -6 60 -4
94 30 30 30 35 42 35 81 0 39 -5 51 -38 86 -34 35 -44 40 -83 40 -24 0 -61 -4
-81 -9 -21 -5 -38 -6 -38 -3 0 2 20 27 45 53 38 41 45 54 45 90 0 33 -6 47
-34 75 -53 53 -122 40 -166 -31 -12 -19 -25 -35 -29 -35 -4 0 -13 16 -20 35
-12 35 -58 77 -96 89 -56 17 -112 -33 -124 -113 l-6 -36 -71 -6 c-128 -10
-199 -78 -228 -223 l-13 -61 -47 3 c-84 6 -137 -34 -136 -105 1 -54 57 -113
108 -113 30 0 64 36 60 63 -3 19 -9 22 -48 22 -39 0 -45 3 -48 22 -4 29 32 49
64 35 12 -6 50 -51 82 -99 69 -103 113 -145 209 -201 118 -69 166 -84 285 -90
89 -4 118 -1 175 16 87 27 172 82 244 159 105 110 149 233 153 423 2 116 3
125 21 126 11 1 30 2 43 3 32 2 82 53 82 85 0 14 -13 40 -29 58 -26 29 -31 31
-61 22 -42 -12 -59 -36 -40 -59 8 -10 23 -15 37 -12 15 3 22 0 20 -7 -6 -19
-48 -19 -69 1 -12 10 -55 69 -96 132 -47 71 -109 148 -168 207 -51 52 -90 94
-87 94 3 0 44 -23 91 -52 259 -156 493 -390 509 -507 4 -32 0 -43 -27 -72 -17
-19 -49 -64 -71 -101 -37 -63 -42 -68 -74 -68 -53 0 -46 -32 15 -69 86 -52
178 -4 245 130 14 27 30 47 35 44 5 -3 19 -38 31 -77 36 -117 15 -278 -41
-308 -10 -6 -47 -13 -81 -17 -48 -5 -71 -13 -104 -39 -64 -48 -84 -57 -122
-51 -109 18 -65 -78 47 -102 28 -6 74 -11 103 -11 46 0 58 5 108 44 31 24 76
70 100 101 l44 56 3 -31 c5 -45 -23 -131 -61 -186 -69 -101 -183 -139 -326
-110 -148 29 -233 13 -280 -53 -29 -41 -24 -65 14 -69 17 -1 77 -12 135 -23
124 -25 163 -21 222 19 23 16 66 37 93 46 28 10 61 24 74 33 23 15 24 14 17
-3 -13 -32 -46 -166 -46 -185 0 -28 61 -56 183 -83 l28 -7 -43 -34 c-24 -19
-65 -47 -92 -62 -95 -54 -113 -77 -163 -213 -57 -158 -58 -164 -15 -168 83 -8
160 67 203 196 43 133 107 209 200 236 85 25 145 20 254 -23 23 -10 26 -14 15
-21 -8 -6 -26 -10 -40 -10 -38 0 -132 -26 -185 -51 -38 -18 -49 -30 -75 -85
-50 -104 -50 -204 -1 -204 13 0 24 14 35 41 14 36 25 44 89 73 57 27 79 43
104 79 62 89 93 94 222 32 70 -34 170 -122 171 -151 0 -8 -26 -11 -77 -11 -96
1 -143 -14 -183 -59 -24 -28 -30 -43 -30 -82 0 -51 19 -90 38 -78 7 4 12 14
12 21 0 24 35 35 112 35 40 0 90 5 110 10 62 18 89 -4 142 -113 53 -107 79
-205 101 -370 17 -136 20 -374 3 -297 -26 115 -64 225 -118 335 -80 164 -82
168 -64 194 8 11 23 21 32 21 16 -1 16 -1 0 -11 -19 -11 -23 -36 -9 -58 14
-22 59 -5 76 29 16 32 11 54 -23 93 -32 36 -109 15 -143 -40 -12 -19 -25 -30
-32 -26 -7 3 -32 20 -56 36 -144 98 -340 139 -486 102 -168 -43 -292 -140
-364 -286 -38 -77 -44 -98 -54 -198 -15 -149 -2 -220 64 -362 55 -120 58 -154
14 -165 -13 -3 -29 -3 -34 1 -18 11 -12 44 10 55 32 18 21 54 -18 58 -64 6
-92 -60 -57 -133 19 -41 73 -69 114 -60 35 8 79 56 87 96 6 33 9 34 54 15 19
-8 62 -19 96 -25 54 -10 67 -9 115 9 60 22 119 74 139 122 10 24 16 28 33 22
12 -4 46 -9 77 -11 53 -4 57 -3 82 27 16 19 27 44 27 61 0 34 -24 95 -46 120
-14 15 -10 17 42 21 49 4 62 10 87 38 25 28 28 39 24 72 -6 42 -37 84 -73 98
-13 5 -45 3 -80 -5 -80 -19 -81 -19 -52 13 40 42 68 94 68 126 0 38 -37 101
-67 115 -30 14 -88 14 -113 1 -30 -16 -62 -77 -69 -133 l-7 -52 -28 54 c-48
93 -110 128 -177 101 -79 -33 -77 -141 3 -204 l33 -26 -72 0 c-62 0 -75 -3
-102 -26 -27 -22 -31 -32 -31 -74 0 -64 25 -94 90 -110 27 -7 67 -9 90 -5 l40
7 -35 -52 c-19 -29 -35 -60 -35 -69 0 -28 47 -87 83 -105 50 -23 72 -20 112
15 39 35 44 29 15 -18 -43 -72 -165 -92 -251 -41 -96 57 -162 159 -181 282
-10 63 -9 88 6 163 35 181 133 313 272 367 160 62 291 57 434 -16 99 -51 167
-111 228 -202 45 -68 102 -187 117 -246 6 -24 4 -25 -43 -25 -38 0 -57 -6 -85
-28 -33 -25 -37 -33 -37 -75 0 -57 20 -89 66 -108 51 -21 83 -9 104 40 l17 41
18 -55 c20 -65 35 -345 17 -339 -14 5 -132 169 -183 252 -49 82 -69 86 -83 14
-14 -70 4 -123 84 -258 38 -63 79 -141 90 -174 35 -103 21 -248 -36 -354 -13
-25 -24 -58 -24 -72 0 -48 12 -89 26 -89 8 0 14 -4 14 -10 0 -5 -6 -10 -14
-10 -14 0 -26 -41 -26 -89 0 -14 11 -47 24 -72 56 -105 71 -251 37 -352 -11
-31 -49 -105 -85 -165 -91 -151 -109 -211 -87 -292 13 -46 37 -35 80 37 51 83
169 247 183 252 18 6 3 -274 -17 -339 l-18 -55 -17 41 c-21 49 -53 61 -104 40
-46 -19 -66 -51 -66 -108 0 -42 4 -50 37 -75 28 -22 47 -28 85 -28 47 0 49 -1
43 -25 -15 -59 -72 -178 -117 -246 -122 -182 -333 -286 -521 -256 -231 37
-367 170 -413 405 -15 75 -16 100 -6 163 19 123 85 225 181 282 86 51 208 31
251 -41 29 -47 24 -53 -15 -18 -40 35 -62 38 -112 15 -36 -18 -83 -77 -83
-105 0 -9 16 -40 35 -69 l35 -52 -35 6 c-59 11 -126 -4 -157 -35 -23 -23 -28
-36 -28 -77 0 -44 4 -54 31 -76 27 -23 40 -26 102 -26 l72 0 -33 -26 c-80 -63
-82 -171 -3 -204 67 -27 129 8 177 101 l28 54 8 -54 c9 -58 39 -115 68 -131
25 -13 83 -13 113 1 30 14 67 77 67 115 0 32 -28 84 -68 126 -30 32 -24 33 53
13 35 -9 64 -11 78 -6 37 14 68 57 74 99 4 33 1 44 -24 72 -25 28 -38 34 -87
38 -52 4 -56 6 -42 21 22 25 46 86 46 120 0 17 -11 42 -26 60 -22 27 -32 31
-74 31 -27 0 -61 -5 -75 -12 -22 -10 -28 -9 -35 3 -52 91 -93 126 -174 149
-42 12 -98 3 -212 -35 -18 -5 -22 -2 -27 23 -8 40 -52 89 -86 97 -45 10 -99
-18 -116 -59 -33 -78 -5 -140 58 -134 39 4 50 40 18 58 -22 11 -28 44 -10 55
5 4 21 4 34 1 44 -11 41 -45 -14 -165 -66 -142 -79 -213 -64 -362 10 -99 16
-121 53 -196 73 -147 197 -245 365 -288 146 -37 342 4 486 102 24 16 49 33 56
36 7 4 20 -7 32 -26 34 -55 111 -76 143 -39 34 38 39 60 23 92 -17 34 -62 51
-76 29 -14 -22 -10 -47 9 -58 16 -10 16 -10 0 -11 -9 0 -24 10 -32 21 -18 26
-16 30 64 194 54 110 92 220 118 335 17 77 14 -161 -3 -297 -22 -165 -48 -263
-101 -370 -53 -109 -80 -131 -142 -113 -20 5 -70 10 -110 10 -77 0 -112 11
-112 35 0 7 -5 17 -12 21 -19 12 -38 -27 -38 -78 0 -39 6 -54 30 -82 40 -45
87 -60 183 -59 42 0 77 -3 77 -7 0 -4 -19 -31 -42 -59 -32 -39 -62 -62 -121
-91 -135 -68 -167 -64 -230 27 -25 36 -47 52 -104 79 -64 29 -75 38 -89 73
-20 50 -39 58 -60 25 -23 -34 -13 -107 26 -188 26 -55 37 -67 75 -85 53 -25
147 -51 185 -51 14 0 32 -4 40 -10 11 -7 8 -11 -15 -21 -109 -43 -169 -48
-254 -23 -93 27 -157 103 -200 236 -43 129 -120 204 -203 196 -42 -4 -42 -9
16 -168 49 -136 66 -159 162 -213 27 -15 68 -43 92 -62 l43 -34 -28 -7 c-122
-27 -183 -55 -183 -83 0 -19 33 -153 46 -185 7 -17 6 -18 -17 -3 -13 9 -46 23
-74 33 -27 9 -70 30 -93 46 -59 40 -98 44 -222 19 -58 -11 -118 -22 -135 -23
-38 -4 -43 -28 -14 -69 47 -66 132 -82 280 -53 143 29 257 -9 326 -110 38 -55
66 -141 61 -186 l-3 -31 -44 56 c-24 31 -69 77 -100 101 -50 39 -62 44 -108
44 -29 0 -75 -5 -103 -11 -112 -24 -156 -120 -47 -102 38 6 58 -3 122 -51 33
-26 56 -34 104 -39 34 -4 71 -11 81 -17 32 -17 49 -64 56 -153 6 -70 3 -96
-15 -155 -12 -39 -26 -74 -31 -77 -5 -3 -21 17 -35 44 -67 134 -159 182 -245
130 -61 -37 -68 -69 -15 -69 32 0 37 -5 74 -68 22 -37 54 -82 71 -101 27 -29
31 -40 27 -72 -16 -117 -250 -351 -509 -507 -47 -29 -88 -52 -91 -52 -3 0 36
42 87 94 59 59 121 136 168 207 41 63 84 122 96 132 21 20 63 20 69 1 2 -7 -5
-10 -20 -7 -14 3 -29 -2 -37 -12 -19 -23 -2 -47 40 -59 30 -9 35 -7 61 22 16
18 29 44 29 58 0 32 -50 83 -82 85 -13 1 -32 2 -43 3 -18 1 -19 10 -21 126 -4
190 -48 313 -153 423 -72 77 -157 132 -244 159 -57 17 -86 20 -175 16 -119 -6
-167 -21 -285 -90 -96 -56 -140 -98 -209 -201 -32 -48 -70 -93 -82 -99 -32
-14 -68 6 -64 35 3 19 9 22 48 22 39 0 45 3 48 22 4 27 -30 63 -61 63 -50 0
-106 -59 -107 -113 -1 -71 52 -111 136 -105 l47 3 13 -61 c29 -145 100 -213
228 -223 l71 -6 6 -36 c12 -80 68 -130 124 -113 38 12 84 54 96 89 7 19 16 35
20 35 4 0 17 -16 29 -35 44 -71 113 -84 166 -31 28 28 34 42 34 75 0 36 -7 49
-45 90 -25 26 -45 51 -45 53 0 3 17 2 38 -3 20 -5 57 -9 81 -9 39 0 49 5 83
40 33 35 38 47 38 86 0 39 -5 51 -35 81 -34 34 -38 36 -94 30 -32 -2 -72 -12
-89 -21 -18 -9 -32 -15 -32 -12 0 2 16 27 35 56 28 42 35 61 35 102 0 44 -4
54 -35 85 -32 32 -39 35 -73 28 -20 -4 -46 -14 -56 -23 -24 -21 -55 -89 -57
-122 -1 -21 -4 -18 -21 20 -53 117 -130 138 -207 56 -33 -35 -25 -101 18 -162
17 -25 31 -46 31 -48 0 -1 -30 -2 -67 -2 -65 1 -67 0 -90 -33 -32 -47 -32
-120 0 -155 12 -14 38 -30 57 -35 32 -10 30 -10 -23 -7 -50 2 -62 7 -92 36
-55 53 -68 91 -63 179 6 94 31 154 93 220 84 90 189 142 326 161 198 28 390
-81 486 -276 l38 -79 0 -145 c0 -143 -1 -146 -34 -223 -54 -126 -184 -302
-198 -269 -13 31 -66 82 -98 92 -93 31 -177 -101 -111 -173 20 -22 30 -25 61
-20 36 6 37 5 26 -16 -25 -46 -251 -201 -294 -201 -18 0 -18 1 1 33 11 17 35
68 53 112 18 44 48 106 67 138 19 33 31 65 28 74 -14 36 -125 -19 -174 -86
-15 -21 -50 -80 -77 -132 -101 -190 -210 -269 -398 -288 -93 -10 -157 -45
-157 -86 0 -22 5 -25 33 -25 17 0 73 7 122 15 141 23 147 22 193 -32 38 -45
42 -47 88 -45 33 1 53 -3 67 -16 18 -16 20 -16 38 7 27 33 24 74 -7 111 -16
18 -23 35 -18 40 5 5 90 38 189 75 190 70 359 153 517 252 134 84 382 272 518
393 154 136 262 217 308 229 24 7 58 7 92 2 48 -8 64 -6 125 16 81 30 154 39
183 24 15 -8 23 -6 38 10 24 27 11 47 -52 79 -64 32 -227 41 -287 17 -20 -9
-37 -12 -37 -7 0 12 130 118 196 159 61 38 89 41 183 16 75 -19 116 -19 196 1
57 15 69 15 108 1 76 -26 106 19 45 67 l-33 25 44 -15 c33 -11 46 -12 57 -3
23 19 16 38 -25 77 -31 29 -44 53 -61 111 -17 59 -32 85 -69 125 -98 106 -101
112 -101 179 0 66 14 165 32 232 l10 40 14 -53 c19 -71 58 -136 120 -199 51
-51 90 -71 119 -59 23 8 18 46 -10 68 -26 20 -55 100 -55 153 0 33 -26 86 -75
156 -27 39 -30 49 -28 113 1 39 14 132 28 206 51 262 64 348 86 540 31 278 23
527 -24 798 -18 106 -30 195 -25 198 4 3 22 2 40 -1 25 -5 42 -1 68 17 41 28
53 68 21 68 -14 0 -27 13 -41 39 -25 51 -55 71 -102 71 -50 0 -64 17 -111 138
-21 53 -44 109 -50 125 -9 20 -9 34 0 55 6 15 29 71 50 124 47 121 61 138 111
138 47 0 77 20 102 71 14 26 27 39 41 39 32 0 20 40 -21 68 -26 18 -43 22 -68
17 -18 -3 -36 -4 -40 -1 -5 3 7 92 25 198 28 159 35 229 39 398 8 280 -14 491
-101 940 -14 74 -27 167 -28 206 -2 64 1 74 28 113 49 70 75 123 75 156 0 53
29 133 55 153 28 22 33 60 10 68 -29 12 -68 -8 -119 -59 -62 -63 -101 -128
-120 -199 l-14 -53 -10 40 c-18 67 -32 166 -32 232 0 67 3 73 101 179 37 40
52 66 69 125 17 58 30 82 61 111 41 39 48 58 25 77 -11 9 -24 8 -57 -3 l-44
-15 33 25 c61 48 31 93 -45 67 -39 -14 -51 -14 -108 1 -79 20 -124 20 -195 1
-95 -26 -130 -21 -204 29 -74 50 -176 135 -176 147 0 4 17 1 38 -8 58 -24 224
-14 288 18 61 31 74 51 50 78 -15 16 -23 18 -38 10 -29 -15 -102 -6 -183 24
-61 22 -77 24 -125 16 -34 -5 -68 -5 -92 2 -46 12 -156 94 -308 229 -134 120
-381 307 -518 393 -158 99 -327 182 -517 252 -99 37 -184 70 -189 75 -5 5 2
22 18 40 29 36 33 75 10 108 -18 26 -27 27 -44 7z m20 -61 c0 -27 -43 -64 -81
-70 -22 -4 -38 -11 -36 -17 1 -5 84 -38 182 -72 99 -34 218 -79 265 -99 273
-119 560 -310 865 -576 163 -142 219 -186 295 -227 47 -25 61 -28 95 -22 71
14 115 10 182 -17 36 -15 83 -26 104 -26 22 1 39 -3 39 -8 0 -13 -90 -40 -135
-40 -54 0 -174 31 -249 64 -33 14 -61 24 -64 22 -2 -3 40 -48 94 -101 109
-106 221 -186 296 -211 47 -15 52 -15 112 5 75 25 117 26 196 4 47 -13 68 -14
95 -6 69 22 27 -17 -48 -43 -90 -32 -162 -36 -252 -15 -46 11 -114 34 -150 50
-36 16 -65 26 -65 21 0 -10 134 -126 212 -183 52 -38 58 -46 63 -87 14 -105
46 -284 54 -298 7 -12 11 -3 15 33 24 183 50 255 119 332 80 87 191 160 119
78 -19 -21 -40 -63 -53 -107 -19 -64 -29 -80 -84 -135 -70 -69 -75 -83 -75
-212 0 -89 45 -313 73 -367 14 -26 14 -24 21 42 15 148 56 251 125 318 47 46
60 43 32 -5 -10 -19 -22 -59 -26 -89 -9 -68 -36 -132 -75 -176 -29 -33 -30
-38 -30 -129 0 -70 11 -149 40 -301 110 -563 116 -902 24 -1368 -19 -98 -32
-181 -29 -184 3 -4 16 6 28 20 25 30 57 48 86 48 31 0 33 -16 6 -57 -38 -58
-40 -60 -88 -67 -60 -9 -79 -33 -122 -153 -20 -56 -44 -110 -52 -120 -13 -16
-14 -15 -9 20 3 21 19 75 37 120 25 64 33 101 37 173 6 127 -9 186 -74 291
-79 126 -105 185 -111 250 l-5 58 25 -42 c14 -23 50 -72 80 -110 91 -113 114
-164 122 -267 5 -54 11 -83 16 -74 13 23 29 210 29 337 0 198 -39 315 -115
347 -46 19 -52 18 -81 -11 -19 -19 -23 -31 -18 -52 10 -42 23 -53 59 -53 29 0
34 4 40 30 4 17 10 30 15 30 12 0 -8 -56 -25 -70 -20 -16 -72 -3 -90 23 -24
35 -19 82 11 106 32 25 100 28 132 5 21 -15 22 -14 22 14 0 42 -43 162 -90
251 -77 144 -191 245 -343 305 -136 54 -224 53 -382 -1 -67 -24 -91 -38 -148
-92 -179 -169 -223 -465 -98 -660 68 -105 192 -163 300 -140 67 14 99 41 132
113 26 56 28 58 29 29 0 -34 -45 -101 -92 -136 -58 -43 -191 -34 -267 17 -55
38 -61 34 -61 -34 0 -40 -26 -71 -72 -86 -27 -8 -72 26 -76 57 -3 22 -1 22 23
-8 32 -39 53 -41 89 -8 36 34 33 62 -19 176 -53 116 -75 193 -75 267 0 85 29
201 72 290 52 107 139 189 239 226 100 37 220 52 302 39 86 -15 236 -86 306
-146 30 -25 58 -44 63 -41 4 3 8 20 8 39 0 27 7 39 33 59 19 15 40 26 47 26 8
0 -5 -14 -28 -31 -28 -20 -42 -38 -42 -54 0 -12 34 -92 75 -177 51 -105 82
-184 96 -244 12 -49 25 -102 30 -119 6 -16 12 -84 15 -150 7 -139 11 -162 26
-125 6 14 13 140 16 280 5 281 -7 404 -53 566 -45 152 -116 264 -179 280 -16
4 -59 1 -96 -6 -66 -12 -174 -7 -184 9 -7 11 44 58 77 70 36 14 128 14 164 0
15 -6 38 -20 50 -31 40 -38 45 -15 11 52 -71 138 -227 250 -350 250 l-59 0
-57 -61 c-53 -56 -185 -139 -199 -125 -9 8 16 67 42 102 14 18 54 47 91 65 89
44 206 52 279 20 116 -51 33 15 -110 88 -98 50 -103 51 -186 51 -47 0 -89 -3
-92 -7 -4 -4 -29 -14 -55 -23 -63 -22 -127 -102 -177 -220 -40 -95 -95 -170
-124 -170 -17 0 -16 6 5 81 39 133 57 165 105 190 24 12 68 45 99 74 39 37 71
58 110 70 30 10 59 21 63 25 9 8 -100 30 -151 30 -17 0 -56 9 -87 21 -55 20
-55 21 -54 62 0 43 3 53 53 176 16 39 26 74 23 77 -3 4 -29 -14 -56 -38 -40
-36 -62 -48 -108 -57 -32 -6 -78 -25 -103 -41 -28 -19 -58 -30 -80 -30 -52 0
-230 43 -230 56 0 27 60 37 178 29 223 -15 254 -9 337 62 93 79 116 131 128
287 5 76 5 135 -1 157 -9 32 -10 33 -15 9 -3 -14 -8 -41 -12 -61 -8 -52 -75
-150 -131 -193 -57 -44 -138 -70 -189 -60 -19 3 -37 10 -40 14 -2 4 26 28 63
53 51 35 82 49 132 57 83 14 107 30 133 88 18 39 22 65 21 152 0 117 -21 184
-85 277 l-34 48 -5 -75 c-5 -62 -11 -84 -36 -120 -16 -24 -45 -55 -63 -67 -38
-26 -81 -30 -81 -9 0 26 61 129 102 174 39 43 40 46 35 98 -8 74 -48 143 -142
243 -143 151 -279 246 -561 393 -207 107 -255 107 -78 -2 149 -91 261 -203
382 -383 47 -71 96 -137 110 -147 22 -18 26 -18 60 -4 61 26 68 27 43 5 -35
-31 -70 -37 -104 -17 -16 9 -32 14 -35 11 -3 -3 0 -41 7 -85 18 -122 1 -263
-44 -355 -66 -136 -182 -246 -300 -286 -173 -59 -429 0 -559 128 -27 26 -70
80 -97 119 -50 74 -100 124 -125 124 -8 0 -28 -7 -44 -15 -34 -18 -38 -41 -15
-85 18 -35 3 -40 -19 -8 -33 47 -15 94 45 116 20 8 36 6 68 -9 24 -10 46 -19
50 -19 4 0 7 33 7 73 -1 110 50 195 136 232 45 18 118 20 142 2 15 -11 5 -13
-64 -12 l-82 0 -47 -51 c-58 -63 -76 -117 -69 -213 10 -136 107 -259 262 -332
161 -75 307 -78 460 -10 58 25 186 149 220 211 83 153 86 378 6 548 -49 106
-195 292 -228 292 -7 0 -12 -14 -12 -35 0 -46 -50 -105 -90 -105 -40 0 -80 41
-80 83 0 18 5 38 12 45 15 15 84 16 94 1 5 -8 -5 -9 -34 -4 -34 5 -42 3 -51
-14 -15 -28 -14 -45 7 -71 22 -27 65 -29 92 -5 24 22 27 92 5 134 -39 76 -220
201 -415 287 -117 51 -165 56 -80 7 96 -55 128 -96 186 -241 19 -47 46 -106
59 -129 13 -24 20 -43 15 -43 -5 0 -33 22 -62 49 -39 36 -71 81 -116 163 -69
126 -78 138 -142 190 -71 58 -143 88 -253 108 -56 10 -115 24 -132 31 -28 12
-28 13 -8 16 12 3 60 -3 106 -11 46 -9 104 -16 129 -16 40 0 49 4 85 44 38 42
41 43 96 42 36 0 57 -5 57 -12z m468 -573 c8 -2 -20 -41 -30 -41 -13 0 -48 30
-48 41 0 6 47 6 78 0z m-229 -247 c59 -50 69 -169 21 -270 l-29 -62 -70 -16
c-109 -25 -144 -22 -175 15 -31 37 -33 67 -5 103 28 35 67 34 149 -5 100 -47
110 -51 110 -34 0 7 -18 35 -40 60 -53 61 -80 116 -80 161 0 72 61 97 119 48z
m250 -20 c48 -40 42 -65 -39 -148 -59 -61 -72 -69 -87 -60 -32 21 -14 154 28
208 26 33 59 33 98 0z m130 -229 c58 -29 61 -105 6 -141 -30 -20 -76 -14 -152
21 -49 22 -53 26 -53 59 0 40 5 44 69 61 62 18 97 18 130 0z m-237 -36 c36
-42 -22 -96 -77 -71 -29 14 -33 46 -9 81 19 27 59 23 86 -10z m-113 -106 c19
-16 20 -22 10 -58 -24 -86 -77 -165 -109 -165 -10 0 -29 9 -44 21 -51 40 -25
118 61 184 53 40 54 41 82 18z m153 -35 c62 -67 87 -158 52 -192 -8 -9 -30
-16 -49 -16 -27 0 -37 6 -54 34 -21 34 -44 165 -34 192 9 25 53 16 85 -18z
m1795 -268 c-71 -66 -120 -149 -138 -230 -15 -69 -25 -51 -34 63 l-7 88 -73
49 c-68 46 -95 70 -80 70 3 0 29 -7 56 -16 67 -22 213 -15 284 14 28 11 51 20
53 21 1 1 -26 -26 -61 -59z m-468 -1500 c25 -13 45 -64 37 -96 -8 -29 -102
-134 -121 -134 -7 0 -24 11 -39 25 -23 21 -26 30 -21 62 13 76 26 114 46 134
20 20 69 25 98 9z m-280 -43 c30 -27 71 -113 71 -148 0 -39 -24 -56 -57 -38
-41 22 -112 89 -129 120 -13 26 -13 32 1 58 8 16 20 32 27 35 21 8 62 -4 87
-27z m152 -197 c13 -7 19 -21 19 -43 0 -42 -15 -57 -57 -57 -26 0 -36 5 -42
22 -11 30 -3 55 22 73 25 18 32 18 58 5z m287 -27 c17 -24 15 -83 -5 -105 -22
-24 -67 -23 -148 4 -65 21 -90 43 -80 70 7 19 152 58 190 52 17 -2 36 -12 43
-21z m-458 -7 c30 -9 35 -16 35 -41 0 -25 -7 -33 -40 -49 -22 -11 -68 -22
-103 -24 -77 -5 -102 11 -102 68 0 57 28 72 120 63 30 -3 71 -11 90 -17z m253
-134 c74 -40 107 -83 107 -140 0 -58 -12 -72 -61 -72 -30 0 -43 7 -72 39 -19
21 -44 65 -56 97 -43 118 -56 121 -64 11 -8 -97 -22 -143 -47 -157 -54 -29
-120 11 -120 72 0 40 16 65 83 135 l50 52 66 -6 c43 -4 83 -15 114 -31z m437
-51 c0 -6 -4 -13 -10 -16 -5 -3 -10 -15 -10 -26 0 -10 -7 -19 -15 -19 -10 0
-15 11 -15 35 0 31 3 35 25 35 14 0 25 -4 25 -9z m30 -1294 c44 -124 67 -154
126 -163 49 -7 51 -9 89 -67 27 -41 25 -57 -6 -57 -29 0 -61 18 -86 48 -12 14
-25 24 -28 20 -3 -3 10 -86 29 -184 92 -466 86 -805 -24 -1368 -29 -152 -40
-231 -40 -301 0 -91 1 -96 30 -129 39 -44 66 -108 75 -176 4 -30 16 -70 26
-89 28 -48 15 -51 -32 -5 -69 67 -110 170 -125 318 -7 66 -7 68 -21 42 -28
-54 -73 -278 -73 -367 0 -129 5 -143 75 -212 55 -55 65 -71 84 -135 13 -44 34
-86 53 -107 72 -82 -39 -9 -119 78 -69 77 -95 149 -119 332 -4 36 -8 45 -15
33 -8 -14 -40 -193 -54 -298 -5 -41 -11 -49 -63 -87 -78 -57 -212 -173 -212
-183 0 -5 28 4 63 19 145 66 258 80 372 46 61 -17 115 -44 115 -56 0 -4 -15
-2 -34 3 -26 8 -49 7 -100 -6 -85 -21 -117 -20 -192 5 -60 20 -65 20 -112 5
-75 -25 -187 -105 -296 -211 -54 -53 -96 -98 -94 -101 3 -2 31 8 64 22 75 33
195 64 249 64 45 0 135 -27 135 -40 0 -5 -17 -9 -39 -8 -21 0 -68 -11 -104
-26 -67 -27 -112 -31 -183 -17 -36 7 -48 4 -110 -32 -71 -40 -122 -80 -309
-243 -216 -188 -450 -353 -657 -463 -130 -70 -235 -114 -443 -186 -98 -34
-181 -67 -182 -72 -2 -6 14 -13 36 -17 26 -4 47 -15 60 -32 34 -43 28 -51 -39
-50 -57 2 -61 3 -95 44 -33 38 -41 42 -82 42 -26 0 -84 -7 -130 -16 -46 -8
-94 -14 -106 -11 -20 3 -20 4 8 16 17 7 76 21 132 31 111 20 182 50 253 108
64 52 73 64 142 190 45 82 77 127 116 163 29 27 57 49 62 49 5 0 -2 -19 -15
-43 -13 -23 -40 -82 -59 -129 -58 -145 -90 -186 -186 -241 -85 -49 -37 -44 80
7 195 86 376 211 415 287 21 40 19 112 -2 131 -34 30 -61 31 -88 4 -27 -27
-31 -46 -14 -77 9 -17 17 -19 51 -14 29 5 39 4 34 -4 -10 -15 -79 -14 -94 1
-7 7 -12 27 -12 45 0 42 40 83 80 83 40 0 90 -59 90 -105 0 -21 5 -35 12 -35
16 0 100 91 154 166 98 137 140 276 130 429 -11 173 -50 260 -165 367 -86 80
-103 90 -202 118 -130 36 -239 25 -375 -39 -155 -73 -252 -196 -262 -332 -7
-96 11 -150 69 -213 l47 -51 82 0 c69 1 79 -1 64 -12 -24 -18 -97 -16 -142 2
-50 21 -79 50 -110 110 -22 41 -26 63 -26 123 0 39 -3 72 -7 72 -4 0 -26 -9
-50 -19 -32 -15 -48 -17 -68 -9 -60 22 -78 69 -45 116 22 32 37 27 19 -8 -23
-44 -19 -67 15 -85 16 -8 36 -15 44 -15 25 0 75 50 125 124 118 174 257 252
478 271 192 16 377 -104 478 -310 45 -92 62 -233 44 -355 -7 -44 -10 -82 -7
-85 3 -3 19 2 35 11 34 20 69 14 104 -17 25 -22 18 -21 -43 5 -34 14 -38 14
-60 -4 -14 -10 -63 -76 -110 -147 -121 -180 -233 -292 -382 -383 -159 -98
-138 -109 40 -21 269 132 447 254 590 403 103 108 143 176 151 252 5 52 4 55
-35 98 -41 45 -102 148 -102 174 0 21 43 17 81 -9 18 -12 47 -41 63 -65 25
-35 31 -55 36 -120 l5 -77 34 48 c64 93 85 160 85 277 1 87 -3 113 -21 152
-26 58 -50 74 -133 88 -50 8 -81 22 -132 57 -37 25 -65 49 -63 53 3 4 21 11
40 14 51 10 132 -16 189 -60 56 -43 123 -141 131 -193 4 -20 9 -47 12 -61 5
-24 6 -23 15 9 6 22 6 81 1 157 -12 156 -35 208 -128 287 -83 71 -114 77 -337
62 -118 -8 -178 2 -178 29 0 13 177 56 229 56 21 0 53 -12 81 -30 26 -16 70
-34 100 -40 57 -11 65 -15 122 -69 21 -19 41 -32 44 -28 4 4 -6 39 -22 78 -50
123 -53 133 -53 176 -1 41 -1 42 54 62 31 12 70 21 87 21 51 0 160 22 151 30
-4 4 -33 15 -63 25 -39 12 -71 32 -110 70 -30 29 -75 63 -98 75 -49 24 -67 56
-106 189 -21 75 -22 81 -5 81 29 0 84 -75 124 -170 50 -118 114 -198 177 -220
26 -9 51 -19 55 -23 3 -4 44 -7 91 -7 81 0 87 2 186 51 98 50 172 97 163 105
-2 2 -26 -5 -52 -17 -40 -18 -62 -21 -131 -17 -136 7 -242 71 -275 167 -6 18
-9 34 -7 37 3 2 34 -9 70 -26 45 -21 83 -50 126 -95 l61 -65 57 0 c67 0 173
46 241 104 40 35 114 141 133 191 11 30 -9 35 -31 8 -33 -39 -150 -57 -216
-32 -33 12 -84 59 -77 70 10 16 118 21 184 9 84 -16 115 -8 157 37 72 76 129
233 159 435 26 181 10 743 -19 658 -3 -8 -8 -69 -11 -135 -3 -66 -9 -133 -15
-150 -5 -16 -18 -70 -30 -119 -14 -60 -45 -139 -96 -244 -41 -85 -75 -165 -75
-177 0 -16 14 -34 42 -54 23 -17 36 -31 28 -31 -7 0 -28 11 -47 26 -26 20 -33
32 -33 59 0 19 -4 36 -8 39 -5 3 -33 -16 -63 -41 -68 -58 -223 -132 -308 -146
-80 -13 -202 3 -300 39 -100 37 -187 119 -239 226 -43 89 -72 205 -72 290 0
74 22 151 75 267 52 114 55 142 19 176 -36 33 -57 31 -89 -7 -24 -31 -26 -31
-23 -9 4 31 49 65 76 57 46 -15 72 -46 72 -86 0 -68 6 -72 61 -34 76 51 209
60 267 17 47 -35 92 -102 92 -136 -1 -29 -3 -27 -29 29 -33 72 -65 99 -132
113 -192 41 -369 -145 -369 -389 0 -110 14 -173 60 -266 57 -117 145 -199 255
-237 158 -54 246 -55 382 -1 152 60 266 161 343 305 47 89 90 209 90 251 0 28
-1 29 -22 14 -32 -23 -100 -20 -132 5 -35 28 -36 80 -1 114 26 27 66 33 83 12
17 -20 33 -67 23 -67 -5 0 -12 14 -16 30 -6 26 -11 30 -40 30 -36 0 -49 -11
-59 -53 -5 -21 -1 -33 18 -52 29 -29 35 -30 81 -11 77 32 115 149 115 354 0
128 -16 306 -30 331 -4 8 -10 -23 -15 -75 -8 -103 -31 -154 -122 -267 -30 -38
-66 -87 -80 -110 l-25 -42 5 58 c6 65 32 124 111 250 65 105 80 164 74 291 -4
72 -12 109 -37 173 -18 45 -34 99 -37 120 -5 35 -4 36 9 20 8 -10 30 -59 47
-110z m-660 -797 c25 -14 39 -60 47 -157 8 -110 21 -107 64 11 12 32 37 76 56
97 29 32 42 39 72 39 49 0 61 -14 61 -72 0 -38 -6 -54 -29 -81 -45 -50 -115
-84 -192 -90 l-66 -6 -50 52 c-67 70 -83 95 -83 135 0 61 66 101 120 72z m610
-129 c0 -11 5 -23 10 -26 18 -11 10 -25 -15 -25 -22 0 -25 4 -25 35 0 24 5 35
15 35 8 0 15 -9 15 -19z m-673 -138 c32 -15 38 -23 38 -48 0 -26 -5 -32 -40
-43 -56 -19 -168 -21 -188 -3 -23 18 -22 83 1 104 33 29 114 25 189 -10z m455
10 c10 -9 18 -30 18 -49 0 -81 -31 -94 -152 -63 -48 12 -90 29 -93 36 -10 27
15 50 77 71 77 26 125 27 150 5z m-274 -45 c7 -7 12 -27 12 -45 0 -44 -37 -64
-73 -40 -29 18 -37 44 -26 75 6 17 16 22 42 22 18 0 38 -5 45 -12z m-94 -104
c10 -27 6 -58 -15 -104 -48 -107 -128 -140 -164 -69 -14 25 -14 32 -1 57 24
46 125 131 157 132 9 0 20 -7 23 -16z m194 -48 c58 -61 70 -93 52 -137 -15
-35 -37 -49 -79 -49 -53 0 -78 41 -95 153 -4 33 -1 43 21 63 14 13 31 24 38
24 7 0 35 -24 63 -54z m351 -1452 c2 -48 71 -162 135 -222 l64 -59 -52 20
c-73 28 -219 35 -285 13 -27 -9 -53 -16 -56 -16 -15 0 12 24 79 70 l74 49 7
78 c3 43 9 89 12 103 6 22 7 23 14 5 4 -11 8 -30 8 -41z m-1605 -300 c35 -34
10 -125 -52 -192 -32 -34 -76 -43 -85 -18 -10 27 13 158 34 192 17 28 27 34
54 34 19 0 41 -7 49 -16z m-266 -27 c22 -24 66 -115 76 -159 5 -22 1 -31 -19
-44 -24 -16 -27 -15 -67 12 -92 64 -125 152 -72 193 34 27 55 26 82 -2z m425
-207 c51 -40 39 -114 -24 -140 -26 -11 -43 -11 -93 -1 -85 18 -96 25 -96 66 0
38 22 55 105 81 57 18 79 17 108 -6z m-472 -36 l70 -16 29 -62 c48 -101 38
-220 -21 -270 -58 -49 -119 -25 -119 46 0 47 26 101 80 163 22 25 40 53 40 60
0 17 -10 13 -110 -34 -82 -39 -121 -40 -149 -5 -28 36 -26 66 5 103 31 37 66
40 175 15z m211 4 c38 -31 21 -81 -33 -93 -21 -5 -30 -1 -43 16 -9 13 -16 33
-16 46 0 37 59 57 92 31z m81 -187 c78 -80 84 -105 36 -146 -65 -54 -117 -10
-140 115 -10 56 -10 72 1 85 21 25 34 18 103 -54z m7 -391 c6 -11 9 -20 8 -21
-27 -5 -78 -7 -78 -2 0 12 33 43 46 43 7 0 18 -9 24 -20z"/>
<path d="M9870 10253 c0 -5 23 -36 51 -68 131 -155 257 -338 409 -595 57 -96
131 -218 165 -270 34 -52 96 -160 137 -240 42 -80 99 -185 128 -235 84 -144
231 -450 280 -583 44 -121 67 -156 54 -84 -22 125 -80 364 -113 472 -22 69
-47 152 -56 185 -26 91 -90 206 -157 282 -33 37 -71 88 -86 113 -14 25 -40 69
-58 99 -19 30 -47 96 -64 147 -44 131 -86 194 -250 371 -175 189 -440 433
-440 406z m350 -358 c228 -239 242 -258 301 -422 21 -57 56 -132 77 -166 22
-34 48 -80 60 -102 11 -22 53 -78 93 -125 90 -107 121 -174 194 -420 32 -107
64 -207 71 -222 17 -32 17 -38 4 -38 -5 0 -22 28 -37 62 -59 133 -155 318
-227 443 -42 72 -101 179 -132 240 -31 60 -78 141 -104 180 -25 38 -91 147
-145 240 -88 152 -140 234 -275 429 -50 73 -52 96 -3 36 21 -25 76 -85 123
-135z"/>
<path d="M10125 9843 c42 -99 69 -316 53 -420 -5 -30 -25 -108 -44 -172 -32
-105 -35 -123 -29 -192 7 -76 7 -77 48 -107 68 -48 99 -60 219 -88 186 -43
355 -140 466 -270 23 -27 42 -42 42 -34 0 40 -93 197 -158 267 -44 47 -327
231 -367 239 -22 4 -50 0 -80 -11 -25 -10 -49 -15 -53 -11 -4 4 13 25 38 46
l45 38 3 101 c5 124 -13 324 -33 381 -21 60 -71 157 -108 207 -30 43 -56 58
-42 26z m109 -201 c42 -110 51 -168 51 -327 0 -123 -4 -156 -18 -182 -20 -37
-44 -53 -81 -53 -21 0 -26 -5 -26 -24 0 -14 11 -38 25 -53 l24 -28 23 28 c18
22 35 30 69 34 38 4 57 -1 120 -32 139 -70 245 -150 323 -244 65 -77 58 -91
-16 -38 -131 94 -195 123 -381 177 -54 16 -123 43 -152 61 -53 32 -54 33 -60
90 -6 48 -1 80 27 186 31 122 33 137 33 305 0 97 3 174 7 172 3 -2 18 -34 32
-72z"/>
<path d="M10310 9553 c0 -10 7 -94 15 -187 15 -163 28 -216 55 -216 6 0 10
-10 10 -23 0 -13 6 -31 13 -40 14 -19 310 -227 316 -222 1 2 -19 43 -47 92
-27 48 -71 131 -97 183 -26 52 -67 122 -90 155 -23 33 -70 108 -104 168 -35
59 -65 107 -67 107 -2 0 -4 -8 -4 -17z m123 -231 c62 -92 203 -359 194 -368
-4 -4 -126 81 -155 109 -13 12 -33 40 -44 62 -12 22 -29 50 -39 63 -28 36 -64
262 -39 247 6 -4 43 -55 83 -113z"/>
<path d="M10655 9444 c19 -38 35 -76 35 -85 0 -9 21 -44 48 -77 26 -33 55 -75
65 -92 10 -18 20 -30 24 -27 3 4 -2 53 -12 111 l-18 104 -73 61 c-103 86 -111
86 -69 5z m85 -66 c23 -17 30 -30 30 -57 0 -35 0 -35 -20 -16 -19 20 -55 95
-45 95 3 0 19 -10 35 -22z"/>
<path d="M10306 9105 c-3 -9 0 -15 9 -15 9 0 12 6 9 15 -4 8 -7 15 -9 15 -2 0
-5 -7 -9 -15z"/>
<path d="M11041 4543 c-55 -151 -183 -416 -298 -619 -50 -87 -112 -202 -138
-254 -26 -52 -75 -138 -110 -190 -34 -52 -108 -174 -165 -270 -152 -257 -278
-440 -409 -595 -54 -63 -65 -86 -29 -61 62 44 291 262 418 399 164 177 206
240 250 371 17 51 45 117 64 147 18 30 44 74 58 99 15 25 53 76 86 113 67 76
131 191 157 282 9 33 34 116 56 185 33 108 91 347 113 473 13 70 -9 37 -53
-80z m-11 -148 c0 -4 -6 -18 -14 -33 -7 -15 -40 -115 -71 -222 -73 -246 -104
-313 -194 -420 -40 -47 -82 -103 -93 -125 -12 -22 -38 -68 -60 -102 -21 -34
-56 -109 -77 -166 -52 -144 -75 -179 -207 -320 -63 -67 -145 -157 -181 -199
-37 -42 -69 -75 -72 -73 -5 5 23 49 135 212 45 65 125 195 179 288 54 94 120
202 145 240 26 39 73 120 104 180 31 61 90 169 132 240 72 125 168 310 227
443 15 34 32 62 37 62 6 0 10 -2 10 -5z"/>
<path d="M10836 4205 c-105 -126 -279 -227 -464 -269 -120 -28 -151 -40 -219
-88 -41 -30 -41 -31 -48 -107 -6 -69 -3 -87 29 -192 19 -64 39 -142 44 -172
16 -104 -11 -321 -53 -419 -14 -33 12 -18 42 25 37 50 87 147 108 207 20 57
38 257 33 381 l-3 101 -45 38 c-25 21 -42 42 -38 46 4 4 28 -1 53 -11 31 -11
58 -15 81 -10 39 7 311 185 363 236 66 67 169 241 159 269 -2 6 -21 -10 -42
-35z m-70 -140 c-78 -101 -198 -195 -345 -270 -63 -31 -82 -36 -120 -32 -34 4
-51 12 -69 34 l-23 28 -24 -28 c-14 -15 -25 -39 -25 -53 0 -19 5 -24 26 -24
37 0 61 -16 81 -53 14 -26 18 -59 18 -182 0 -86 -6 -174 -13 -205 -14 -61 -60
-188 -70 -194 -4 -2 -7 75 -7 172 0 168 -2 184 -33 307 -27 105 -32 140 -27
186 6 55 8 56 60 88 29 18 98 45 152 61 185 54 259 88 383 178 61 44 76 39 36
-13z"/>
<path d="M10565 3834 c-160 -111 -175 -125 -175 -161 0 -13 -4 -23 -10 -23
-27 0 -40 -53 -55 -224 -9 -98 -14 -183 -12 -189 2 -6 32 39 67 99 34 60 82
136 105 169 23 33 64 103 90 155 26 52 70 135 97 183 28 49 48 90 47 92 -2 2
-71 -44 -154 -101z m65 12 c0 -2 -28 -61 -63 -132 -57 -118 -191 -333 -217
-349 -25 -15 11 211 39 247 10 13 28 42 39 65 21 40 42 60 142 137 41 32 60
42 60 32z"/>
<path d="M10306 3695 c4 -8 7 -15 9 -15 2 0 5 7 9 15 3 9 0 15 -9 15 -9 0 -12
-6 -9 -15z"/>
<path d="M10803 3610 c-10 -18 -37 -56 -60 -85 -23 -29 -51 -78 -62 -108 -10
-31 -29 -70 -40 -86 -45 -63 -17 -53 83 30 l73 61 18 104 c10 58 15 107 12
111 -4 3 -14 -9 -24 -27z m-60 -186 c-15 -13 -31 -23 -36 -24 -10 0 20 70 41
93 16 19 17 18 20 -13 3 -26 -2 -38 -25 -56z"/>
<path d="M4135 2347 c-23 -23 -35 -44 -35 -62 0 -33 28 -95 47 -102 22 -9 15
-23 -37 -70 -74 -66 -102 -120 -104 -196 -1 -50 4 -73 27 -118 l28 -55 -40
-40 c-22 -22 -43 -52 -46 -66 -16 -65 69 -134 153 -124 23 3 42 3 42 1 0 -3
-9 -22 -20 -42 -29 -55 -26 -98 9 -134 24 -23 38 -29 74 -29 57 0 93 28 107
83 24 93 25 93 53 17 23 -63 58 -97 106 -105 55 -9 108 18 134 67 16 33 17 42
6 75 -6 20 -34 59 -61 85 l-50 48 55 -6 c68 -8 118 8 152 47 27 33 34 92 12
119 -38 49 -115 65 -167 35 -41 -24 -42 -17 -5 36 58 84 47 147 -32 188 -56
29 -123 -11 -167 -98 l-23 -45 -20 45 c-31 68 -53 83 -110 75 -84 -11 -135
-68 -114 -128 15 -43 6 -47 -18 -7 -26 42 -26 92 -2 144 39 85 128 136 251
143 132 7 253 -49 364 -169 110 -118 151 -253 123 -394 -36 -173 -124 -290
-276 -369 -102 -52 -174 -69 -296 -69 -80 -1 -235 19 -235 29 0 2 9 18 20 36
21 35 26 91 11 130 -5 14 -27 32 -50 43 -35 15 -47 16 -81 6 -68 -20 -91 -82
-48 -128 12 -13 19 -25 17 -27 -24 -24 -371 136 -354 164 4 7 86 15 293 27 90
5 102 8 102 24 0 17 -39 52 -90 80 -18 10 -83 15 -225 19 l-200 5 -66 32 c-62
31 -163 124 -212 197 -18 26 -84 66 -110 66 -8 0 -20 -6 -26 -14 -9 -10 3 -31
54 -97 36 -46 77 -101 92 -122 l26 -38 -21 -52 c-27 -65 -27 -64 3 -110 16
-22 25 -48 23 -65 -3 -22 1 -27 22 -30 38 -4 89 33 97 68 3 17 9 32 13 35 4 2
72 -50 151 -116 153 -127 276 -214 425 -298 163 -93 504 -239 688 -296 127
-39 294 -110 324 -137 13 -13 38 -51 53 -85 22 -48 43 -74 91 -114 73 -60 98
-93 98 -131 0 -22 6 -29 27 -34 55 -14 65 50 27 168 -18 56 -85 162 -114 180
-67 42 40 17 158 -37 120 -56 125 -61 162 -177 29 -91 39 -109 87 -159 40 -42
57 -70 66 -104 14 -55 37 -76 61 -56 9 8 16 24 16 37 0 13 5 24 10 24 6 0 10
-11 10 -24 0 -13 7 -29 16 -37 24 -20 47 1 61 56 9 35 26 62 67 104 48 52 57
68 85 159 36 114 41 120 163 177 65 29 178 68 178 61 0 -1 -17 -21 -37 -42
-49 -51 -88 -125 -108 -199 -18 -73 -19 -96 -2 -120 21 -28 67 -13 67 23 0 38
25 71 98 131 48 40 69 66 91 114 15 34 40 72 53 85 30 27 197 98 324 137 184
57 525 203 688 296 149 84 272 171 425 298 79 66 147 118 151 116 4 -3 10 -18
13 -35 8 -35 59 -72 97 -68 21 3 25 8 22 30 -2 17 7 43 23 65 30 46 30 45 3
110 l-21 52 26 38 c15 21 56 76 92 122 51 66 63 87 54 97 -6 8 -18 14 -26 14
-26 0 -92 -40 -110 -66 -49 -73 -150 -166 -212 -197 l-66 -32 -200 -5 c-142
-4 -207 -9 -225 -19 -51 -28 -90 -63 -90 -80 0 -16 12 -19 103 -25 227 -14
282 -19 290 -26 11 -10 -69 -60 -174 -109 -80 -38 -168 -65 -178 -55 -2 2 5
14 17 27 43 46 20 108 -48 128 -34 10 -46 9 -81 -6 -23 -11 -45 -29 -50 -43
-15 -39 -10 -95 11 -130 11 -18 20 -34 20 -36 0 -10 -155 -30 -235 -29 -122 0
-194 17 -296 69 -152 79 -240 196 -276 369 -28 141 13 276 123 394 111 120
232 176 364 169 123 -7 212 -58 251 -143 24 -52 24 -102 -2 -144 -24 -40 -33
-36 -18 7 21 60 -30 117 -114 128 -57 8 -79 -7 -110 -75 l-20 -45 -23 45 c-44
87 -111 127 -167 98 -79 -41 -90 -104 -32 -188 37 -53 36 -60 -5 -36 -52 30
-129 14 -167 -35 -22 -27 -15 -86 12 -119 34 -40 84 -55 154 -47 l56 6 -47
-40 c-29 -25 -53 -57 -63 -85 -17 -42 -17 -46 2 -82 26 -50 78 -77 134 -68 48
8 83 42 106 105 24 65 30 68 43 19 6 -24 13 -52 16 -61 10 -32 54 -58 101 -58
36 0 50 6 74 29 35 36 38 79 9 134 -11 20 -20 39 -20 42 0 2 19 2 43 -1 83
-10 168 59 152 124 -3 14 -24 44 -46 66 l-40 40 28 55 c23 45 28 68 27 118 -2
76 -30 130 -104 196 -52 47 -59 61 -37 70 19 7 47 69 47 102 0 18 -12 39 -35
62 -33 33 -39 35 -81 30 -54 -6 -94 -39 -94 -77 0 -61 60 -83 70 -25 4 24 10
30 30 30 21 0 26 -5 28 -31 4 -42 -22 -52 -162 -63 -144 -12 -231 -47 -368
-149 -79 -59 -155 -177 -184 -284 -30 -113 -7 -290 52 -398 55 -102 175 -210
302 -274 28 -14 52 -30 52 -35 0 -5 -7 -22 -15 -37 -19 -36 -19 -56 -1 -98 15
-37 53 -52 98 -41 39 10 67 96 36 108 -21 8 -58 -11 -58 -30 0 -12 -3 -14 -10
-7 -14 14 -3 42 22 55 10 6 81 14 156 19 145 9 243 27 341 60 33 11 64 20 68
20 18 -1 -99 -67 -212 -121 -194 -92 -359 -139 -490 -139 -86 0 -118 17 -134
70 -7 23 -28 70 -47 104 -34 63 -42 100 -24 111 20 13 10 35 -16 35 -36 0 -91
-36 -109 -70 -30 -57 -8 -152 56 -241 12 -17 19 -33 15 -36 -8 -9 -126 17
-161 34 -65 33 -143 96 -161 128 -18 33 -17 34 10 105 26 64 28 78 21 146 -6
71 -5 77 20 110 15 19 24 42 21 49 -8 23 -57 18 -98 -10 -52 -35 -118 -138
-118 -184 0 -47 24 -144 49 -204 11 -26 17 -47 12 -47 -12 0 -82 57 -104 83
-10 12 -30 45 -45 72 -22 42 -26 63 -27 125 0 89 19 131 102 228 70 83 96 136
96 192 1 50 -26 110 -47 110 -8 0 -29 -19 -47 -42 -18 -24 -56 -68 -84 -99
-69 -75 -87 -115 -84 -187 2 -46 -10 -202 -15 -202 -1 0 -34 32 -73 70 -43 42
-80 70 -93 70 -13 0 -50 -28 -93 -70 -39 -38 -72 -70 -73 -70 -5 0 -17 156
-15 202 3 72 -15 112 -84 187 -28 31 -66 75 -84 99 -18 23 -39 42 -47 42 -21
0 -48 -60 -47 -110 0 -57 25 -107 102 -198 75 -90 105 -164 98 -243 -5 -54
-37 -130 -74 -176 -22 -26 -92 -83 -104 -83 -5 0 1 21 12 47 25 60 49 157 49
204 0 46 -66 149 -118 184 -41 28 -90 33 -98 10 -3 -7 6 -30 21 -49 25 -33 26
-39 20 -110 -7 -67 -4 -82 20 -144 26 -67 27 -70 10 -105 -16 -33 -91 -94
-160 -130 -35 -17 -153 -43 -161 -34 -4 3 3 19 15 36 64 89 86 184 56 241 -18
34 -73 70 -109 70 -26 0 -36 -22 -16 -35 18 -11 10 -48 -24 -111 -19 -34 -40
-81 -47 -104 -16 -53 -48 -70 -134 -70 -134 0 -297 47 -501 145 -118 56 -221
115 -201 115 4 0 35 -9 68 -20 98 -33 196 -51 341 -60 75 -5 146 -13 156 -19
25 -13 36 -41 22 -55 -7 -7 -10 -5 -10 7 0 19 -37 38 -57 30 -16 -6 -17 -44
-2 -77 24 -51 112 -45 135 10 18 42 18 62 -1 98 -8 15 -15 32 -15 37 0 5 24
21 53 35 126 64 246 172 301 274 58 107 82 285 52 395 -17 64 -65 158 -107
212 -46 58 -127 116 -234 169 -84 42 -98 45 -207 54 -144 12 -170 22 -166 64
2 26 7 31 28 31 20 0 26 -6 30 -30 10 -58 70 -36 70 25 0 38 -40 71 -94 77
-42 5 -48 3 -81 -30z m95 -7 c12 -8 9 -10 -13 -10 -44 0 -67 -17 -67 -50 0
-69 32 -87 178 -100 172 -15 255 -50 365 -150 132 -120 197 -271 183 -421 -10
-111 -66 -243 -137 -324 -55 -62 -209 -161 -279 -178 -51 -13 -53 -22 -16 -59
28 -28 36 -44 36 -71 0 -20 -4 -39 -10 -42 -6 -4 -10 11 -10 37 0 24 -4 48 -8
55 -14 22 -58 31 -178 38 -228 13 -394 56 -560 145 -93 50 -114 58 -114 41 0
-19 243 -174 420 -268 176 -94 374 -154 510 -155 120 -1 181 29 196 96 9 42
47 116 80 156 26 30 28 31 41 14 46 -63 -22 -215 -114 -255 -70 -30 -47 -42
71 -37 139 7 248 54 328 142 53 58 56 89 14 203 -12 31 -14 62 -9 123 6 79 6
80 27 67 11 -8 31 -34 44 -58 19 -38 22 -56 19 -124 -4 -105 -41 -188 -109
-250 -26 -23 -48 -46 -48 -49 0 -10 100 44 176 95 113 76 152 133 173 254 12
68 12 72 -16 140 -16 39 -57 107 -91 153 -63 86 -90 147 -78 179 6 15 19 6 82
-60 86 -89 107 -129 98 -186 -4 -27 0 -59 15 -104 18 -53 20 -73 13 -104 -6
-21 -13 -53 -16 -72 -5 -30 -4 -32 11 -20 9 8 40 46 70 86 53 72 108 123 133
123 25 0 80 -51 133 -123 30 -40 61 -78 70 -86 15 -12 16 -10 11 20 -3 19 -10
51 -16 72 -7 31 -5 51 13 104 15 45 19 77 15 104 -9 57 12 97 98 186 63 66 76
75 82 60 12 -32 -15 -93 -78 -179 -34 -46 -75 -114 -91 -153 -28 -68 -28 -72
-16 -140 21 -121 60 -178 173 -254 76 -51 176 -105 176 -95 0 3 -22 26 -48 49
-98 88 -141 263 -92 368 12 26 32 54 44 63 21 14 21 14 28 -63 7 -69 5 -87
-17 -151 -30 -87 -30 -85 -4 -139 14 -30 40 -57 83 -87 93 -67 154 -88 272
-94 118 -5 141 7 71 37 -92 40 -160 192 -114 255 13 17 15 16 41 -14 33 -40
71 -114 80 -156 15 -67 76 -97 196 -96 134 1 315 55 496 148 104 53 356 207
409 249 57 47 12 39 -93 -16 -176 -93 -327 -131 -561 -144 -116 -7 -159 -16
-173 -38 -4 -7 -8 -31 -8 -55 0 -26 -4 -41 -10 -37 -5 3 -10 22 -10 42 0 27 8
43 36 71 40 40 38 42 -41 68 -63 20 -201 111 -247 162 -76 85 -134 216 -144
331 -14 150 51 301 183 421 110 100 193 135 365 150 146 13 178 31 178 100 0
33 -22 50 -67 51 -27 0 -27 1 -6 11 30 15 72 2 85 -27 19 -42 2 -92 -42 -122
-22 -14 -40 -29 -40 -34 0 -4 19 -17 43 -27 86 -38 165 -159 153 -234 -8 -48
-36 -106 -65 -132 -36 -32 -34 -11 3 33 39 47 51 86 41 139 -22 119 -132 208
-270 219 -164 14 -351 -84 -456 -239 -50 -74 -63 -104 -82 -195 -14 -66 -13
-79 5 -169 26 -132 58 -196 133 -269 154 -149 344 -213 554 -187 106 14 199
36 214 51 7 7 2 14 -16 20 -54 21 -85 111 -50 146 17 18 56 35 77 35 19 0 66
-46 66 -64 0 -20 -46 -73 -56 -64 -4 4 4 16 17 27 20 16 22 23 14 47 -9 24
-17 30 -46 32 -44 4 -69 -17 -69 -59 0 -63 79 -99 173 -79 100 20 341 156 472
264 46 39 23 40 -46 2 -84 -46 -139 -52 -286 -32 -65 9 -134 17 -153 19 l-35
3 39 18 c60 27 141 37 256 30 84 -5 118 -3 165 11 103 29 171 72 244 154 87
98 130 141 142 141 15 0 -3 -27 -81 -120 -39 -46 -74 -95 -77 -109 -3 -13 1
-46 10 -73 16 -49 15 -51 -11 -99 -29 -53 -40 -56 -60 -18 -12 23 -11 50 3 97
4 12 3 22 -1 22 -5 0 -45 -32 -89 -71 -401 -355 -689 -517 -1280 -719 -176
-60 -335 -138 -335 -165 0 -7 -14 -39 -30 -72 -23 -45 -45 -72 -86 -103 -31
-23 -65 -58 -76 -76 -11 -19 -23 -33 -25 -30 -3 2 0 29 7 60 15 73 75 153 171
230 41 33 79 64 84 69 32 30 -240 -50 -340 -100 -128 -64 -168 -106 -179 -193
-6 -48 -43 -114 -77 -138 -24 -17 -69 -93 -69 -118 -1 -18 -1 -18 -11 -1 -13
22 9 139 39 207 24 57 102 142 181 200 34 25 61 48 61 52 0 10 -91 -18 -217
-68 l-113 -45 -112 45 c-127 50 -218 78 -218 68 0 -4 27 -27 61 -52 79 -57
150 -136 179 -196 31 -67 55 -188 41 -211 -10 -17 -10 -17 -11 3 0 23 -55 114
-69 114 -19 0 -71 94 -77 141 -11 86 -51 128 -179 192 -100 50 -372 130 -340
100 6 -5 43 -36 84 -69 96 -77 156 -157 171 -230 7 -31 10 -58 7 -60 -2 -3
-14 11 -25 30 -11 18 -45 53 -76 76 -41 31 -63 58 -86 103 -16 33 -30 65 -30
72 0 27 -159 105 -335 165 -591 202 -879 364 -1280 719 -44 39 -84 71 -89 71
-4 0 -5 -10 -1 -22 14 -47 15 -74 3 -97 -20 -38 -31 -35 -60 18 -26 48 -27 50
-11 99 9 27 13 60 10 73 -3 14 -38 63 -77 109 -78 93 -96 120 -81 120 12 0 55
-43 142 -141 73 -82 141 -125 244 -154 47 -14 81 -16 165 -11 115 7 196 -3
256 -30 l39 -18 -35 -3 c-19 -2 -88 -10 -153 -19 -147 -20 -202 -14 -286 32
-69 38 -92 37 -46 -2 131 -108 372 -244 472 -264 94 -20 173 16 173 79 0 42
-25 63 -69 59 -29 -2 -37 -8 -46 -32 -8 -24 -6 -31 14 -47 13 -11 21 -23 17
-27 -10 -9 -56 44 -56 64 0 18 47 64 66 64 21 0 60 -17 77 -35 35 -35 4 -125
-50 -146 -35 -13 -21 -26 48 -44 279 -74 518 -20 704 160 75 73 107 137 133
269 18 90 19 103 5 169 -19 91 -32 121 -82 195 -105 155 -292 253 -456 239
-137 -10 -244 -97 -270 -215 -11 -51 2 -97 41 -143 37 -44 39 -65 3 -33 -29
26 -57 84 -65 132 -12 75 67 196 154 234 23 10 42 23 42 28 0 4 -16 18 -36 30
-55 35 -72 102 -34 140 21 21 56 26 80 10z m314 -401 c43 -34 31 -76 -51 -176
-36 -45 -70 -55 -93 -28 -24 29 8 156 52 202 27 29 57 29 92 2z m2284 -2 c44
-46 76 -173 52 -202 -23 -27 -57 -17 -93 28 -82 100 -94 142 -51 176 35 27 65
27 92 -2z m-2551 -22 c12 -14 34 -62 49 -109 l27 -84 -24 -31 c-13 -17 -34
-45 -47 -61 -31 -39 -120 -80 -175 -80 -73 0 -113 46 -91 105 16 41 130 58
233 34 67 -15 73 3 15 43 -78 54 -134 109 -134 132 0 12 7 32 16 44 33 47 92
50 131 7z m2851 -1 c12 -14 22 -36 22 -48 0 -26 -53 -78 -134 -134 -58 -40
-52 -58 15 -43 103 24 217 7 233 -34 22 -59 -18 -105 -91 -105 -56 0 -145 41
-175 81 -13 16 -34 43 -47 60 l-24 31 26 82 c15 44 34 91 43 104 33 48 92 50
132 6z m-2415 -212 c18 -30 18 -34 3 -56 -30 -46 -144 -59 -218 -26 -30 14
-42 44 -23 60 32 27 132 60 175 57 38 -2 47 -6 63 -35z m2009 17 c76 -29 97
-45 91 -67 -6 -25 -45 -43 -109 -49 -96 -10 -171 36 -143 89 6 13 16 29 22 36
14 18 80 15 139 -9z m-2288 -72 c7 -11 7 -25 0 -44 -12 -36 -54 -43 -83 -14
-28 28 -26 55 6 80 23 19 29 20 47 8 11 -8 24 -21 30 -30z m2499 15 c23 -20
22 -47 -3 -72 -39 -39 -90 -17 -90 39 0 23 47 64 64 54 6 -3 19 -13 29 -21z
m-2604 -101 c11 -7 11 -20 -3 -82 -22 -100 -46 -139 -87 -139 -42 0 -93 50
-83 82 11 35 44 75 93 113 47 37 57 40 80 26z m221 -61 c47 -47 59 -83 39
-119 -39 -69 -124 -57 -159 23 -11 24 -23 64 -26 88 -5 40 -3 44 23 59 24 14
32 14 56 2 15 -8 46 -32 67 -53z m2326 -8 c-10 -74 -41 -131 -80 -147 -55 -23
-116 13 -116 70 0 32 44 89 95 123 45 30 47 30 76 14 28 -16 30 -20 25 -60z
m155 43 c49 -38 82 -78 93 -113 10 -32 -41 -82 -83 -82 -40 0 -64 37 -88 138
-15 64 -15 75 -2 83 23 14 33 11 80 -26z m-3047 -257 c8 -14 7 -22 -7 -35 -13
-13 -17 -14 -17 -3 0 7 -10 25 -22 38 l-23 24 29 -4 c16 -1 34 -11 40 -20z
m3358 -1 c-12 -13 -22 -29 -22 -36 0 -11 -3 -11 -15 -1 -29 24 -10 60 34 60
l24 0 -21 -23z m-1782 -856 l80 -38 80 38 c45 22 86 39 92 39 6 0 -13 -25 -41
-55 -57 -61 -108 -160 -118 -230 -6 -47 -23 -62 -23 -22 0 28 -30 119 -55 167
-10 19 -40 58 -68 87 -27 29 -45 53 -39 53 6 0 47 -17 92 -39z"/>
<path d="M5565 1200 c-45 -22 -87 -56 -167 -139 -77 -79 -129 -123 -185 -155
-78 -46 -194 -90 -272 -104 -24 -4 -42 -11 -42 -17 1 -14 210 -18 277 -6 30 6
124 45 218 90 180 88 226 126 226 184 0 18 5 39 10 47 9 13 11 13 20 0 5 -8
10 -29 10 -47 0 -58 46 -96 226 -184 94 -45 188 -84 218 -90 67 -12 276 -8
277 6 0 6 -18 13 -42 17 -78 14 -194 58 -272 104 -56 32 -108 76 -185 155 -82
85 -121 117 -168 140 -34 16 -68 29 -75 29 -8 0 -41 -14 -74 -30z m137 -26
c28 -14 99 -72 160 -130 110 -105 206 -171 314 -214 54 -22 70 -40 37 -40 -73
0 -187 34 -298 90 -202 101 -263 162 -234 233 11 26 10 31 -6 43 -10 8 -26 14
-35 14 -9 0 -25 -6 -35 -14 -16 -12 -17 -17 -6 -43 29 -71 -32 -132 -234 -233
-111 -56 -225 -90 -297 -90 -34 0 -18 18 36 40 108 43 206 110 310 211 94 90
190 158 224 159 7 0 36 -12 64 -26z"/>
<path d="M5625 1000 c-3 -5 3 -10 15 -10 12 0 18 5 15 10 -3 6 -10 10 -15 10
-5 0 -12 -4 -15 -10z"/>
<path d="M5515 906 c-27 -13 -104 -50 -170 -82 l-120 -59 185 -6 c223 -7 644
1 633 12 -18 18 -333 159 -355 159 -13 0 -29 -5 -36 -12 -9 -9 -15 -9 -24 0
-18 18 -57 14 -113 -12z m307 -52 c46 -20 87 -40 91 -44 5 -4 -11 -11 -35 -16
-60 -11 -456 -7 -493 4 l-30 9 50 23 c28 12 68 30 90 40 30 14 66 19 142 19
96 1 107 -1 185 -35z"/>
<path d="M4426 800 c14 -14 305 -106 424 -135 58 -13 155 -36 215 -50 159 -38
239 -41 365 -16 139 28 272 27 427 -1 108 -19 132 -21 205 -11 175 24 623 141
773 203 49 20 11 23 -83 6 -169 -31 -381 -47 -744 -56 -623 -15 -1229 8 -1476
55 -90 18 -120 19 -106 5z m794 -81 c212 -6 401 -12 420 -12 58 0 799 24 885
28 96 5 90 3 -185 -61 -240 -56 -345 -65 -467 -40 -108 22 -358 22 -466 0
-122 -25 -227 -16 -467 40 -275 64 -281 66 -185 61 44 -2 253 -9 465 -16z"/>
<path d="M5595 545 c-6 -3 -44 -9 -85 -13 l-75 -8 35 -15 c19 -9 65 -26 103
-39 l67 -24 68 24 c37 13 83 30 102 39 l35 15 -55 7 c-125 14 -186 18 -195 14z
m103 -31 c2 -1 -10 -10 -27 -19 -29 -14 -33 -14 -63 2 l-33 17 30 6 c26 6 84
2 93 -6z"/>
</g>
</svg>
